<svg width="291" height="102" viewBox="0 0 291 102" fill="none" xmlns="http://www.w3.org/2000/svg">
<path d="M2.00852 22V1.63636H9.80398C11.2756 1.63636 12.4986 1.86837 13.473 2.33239C14.4541 2.78977 15.1866 3.41619 15.6705 4.21165C16.161 5.0071 16.4062 5.90862 16.4062 6.91619C16.4062 7.74479 16.2472 8.45407 15.929 9.04403C15.6108 9.62737 15.1832 10.1013 14.6463 10.4659C14.1094 10.8305 13.5095 11.0923 12.8466 11.2514V11.4503C13.5691 11.4901 14.2618 11.7121 14.9247 12.1165C15.5942 12.5142 16.1411 13.0777 16.5653 13.8068C16.9896 14.536 17.2017 15.4176 17.2017 16.4517C17.2017 17.5057 16.9465 18.4536 16.4361 19.2955C15.9257 20.1307 15.1567 20.7902 14.1293 21.2741C13.1018 21.758 11.8092 22 10.2514 22H2.00852ZM5.69744 18.9176H9.66477C11.0038 18.9176 11.9683 18.6624 12.5582 18.152C13.1548 17.6349 13.4531 16.9721 13.4531 16.1634C13.4531 15.5601 13.304 15.0166 13.0057 14.5327C12.7074 14.0421 12.2831 13.6577 11.733 13.3793C11.1828 13.0942 10.5265 12.9517 9.7642 12.9517H5.69744V18.9176ZM5.69744 10.2969H9.34659C9.98296 10.2969 10.5563 10.1809 11.0668 9.94886C11.5772 9.71023 11.9782 9.37547 12.2699 8.9446C12.5682 8.5071 12.7173 7.99006 12.7173 7.39347C12.7173 6.60464 12.4389 5.95502 11.8821 5.4446C11.3319 4.93418 10.5133 4.67898 9.42614 4.67898H5.69744V10.2969ZM26.3537 22.2983C24.8622 22.2983 23.5696 21.9702 22.4759 21.3139C21.3821 20.6577 20.5336 19.7396 19.9304 18.5597C19.3338 17.3797 19.0355 16.0009 19.0355 14.4233C19.0355 12.8456 19.3338 11.4635 19.9304 10.277C20.5336 9.09043 21.3821 8.16903 22.4759 7.51278C23.5696 6.85653 24.8622 6.52841 26.3537 6.52841C27.8452 6.52841 29.1378 6.85653 30.2315 7.51278C31.3253 8.16903 32.1705 9.09043 32.7671 10.277C33.3703 11.4635 33.6719 12.8456 33.6719 14.4233C33.6719 16.0009 33.3703 17.3797 32.7671 18.5597C32.1705 19.7396 31.3253 20.6577 30.2315 21.3139C29.1378 21.9702 27.8452 22.2983 26.3537 22.2983ZM26.3736 19.4148C27.1823 19.4148 27.8584 19.1927 28.402 18.7486C28.9456 18.2978 29.3499 17.6946 29.6151 16.9389C29.8869 16.1832 30.0227 15.3414 30.0227 14.4134C30.0227 13.4787 29.8869 12.6335 29.6151 11.8778C29.3499 11.1155 28.9456 10.509 28.402 10.0582C27.8584 9.60748 27.1823 9.3821 26.3736 9.3821C25.545 9.3821 24.8556 9.60748 24.3054 10.0582C23.7619 10.509 23.3542 11.1155 23.0824 11.8778C22.8172 12.6335 22.6847 13.4787 22.6847 14.4134C22.6847 15.3414 22.8172 16.1832 23.0824 16.9389C23.3542 17.6946 23.7619 18.2978 24.3054 18.7486C24.8556 19.1927 25.545 19.4148 26.3736 19.4148ZM42.8289 22.2983C41.3374 22.2983 40.0448 21.9702 38.951 21.3139C37.8573 20.6577 37.0088 19.7396 36.4056 18.5597C35.809 17.3797 35.5107 16.0009 35.5107 14.4233C35.5107 12.8456 35.809 11.4635 36.4056 10.277C37.0088 9.09043 37.8573 8.16903 38.951 7.51278C40.0448 6.85653 41.3374 6.52841 42.8289 6.52841C44.3203 6.52841 45.613 6.85653 46.7067 7.51278C47.8005 8.16903 48.6456 9.09043 49.2422 10.277C49.8454 11.4635 50.147 12.8456 50.147 14.4233C50.147 16.0009 49.8454 17.3797 49.2422 18.5597C48.6456 19.7396 47.8005 20.6577 46.7067 21.3139C45.613 21.9702 44.3203 22.2983 42.8289 22.2983ZM42.8488 19.4148C43.6575 19.4148 44.3336 19.1927 44.8772 18.7486C45.4207 18.2978 45.8251 17.6946 46.0902 16.9389C46.362 16.1832 46.4979 15.3414 46.4979 14.4134C46.4979 13.4787 46.362 12.6335 46.0902 11.8778C45.8251 11.1155 45.4207 10.509 44.8772 10.0582C44.3336 9.60748 43.6575 9.3821 42.8488 9.3821C42.0202 9.3821 41.3308 9.60748 40.7806 10.0582C40.237 10.509 39.8293 11.1155 39.5576 11.8778C39.2924 12.6335 39.1598 13.4787 39.1598 14.4134C39.1598 15.3414 39.2924 16.1832 39.5576 16.9389C39.8293 17.6946 40.237 18.2978 40.7806 18.7486C41.3308 19.1927 42.0202 19.4148 42.8488 19.4148ZM55.9233 17.2074L55.9134 12.8622H56.4901L61.9787 6.72727H66.1847L59.4333 14.2443H58.6875L55.9233 17.2074ZM52.6421 22V1.63636H56.2415V22H52.6421ZM62.2273 22L57.2557 15.0497L59.6819 12.5142L66.5327 22H62.2273ZM78.8037 22.3082C77.8359 22.3082 76.9642 22.1359 76.1886 21.7912C75.4197 21.4399 74.8098 20.9228 74.3591 20.2401C73.915 19.5573 73.6929 18.7154 73.6929 17.7145C73.6929 16.8527 73.852 16.1402 74.1702 15.5767C74.4883 15.0133 74.9225 14.5625 75.4727 14.2244C76.0229 13.8864 76.6427 13.6312 77.3321 13.4588C78.0281 13.2798 78.7473 13.1506 79.4898 13.071C80.3847 12.9782 81.1105 12.8954 81.6673 12.8224C82.2241 12.7429 82.6285 12.6236 82.8804 12.4645C83.1389 12.2988 83.2682 12.0436 83.2682 11.6989V11.6392C83.2682 10.8902 83.0461 10.3101 82.602 9.89915C82.1579 9.48816 81.5182 9.28267 80.683 9.28267C79.8013 9.28267 79.102 9.47491 78.5849 9.85938C78.0745 10.2438 77.7298 10.6979 77.5508 11.2216L74.1901 10.7443C74.4552 9.81629 74.8927 9.04072 75.5026 8.41761C76.1124 7.78788 76.8581 7.31723 77.7398 7.00568C78.6214 6.6875 79.5958 6.52841 80.6631 6.52841C81.3989 6.52841 82.1313 6.61458 82.8605 6.78693C83.5897 6.95928 84.2559 7.24432 84.8591 7.64204C85.4623 8.03314 85.9462 8.56676 86.3108 9.2429C86.682 9.91903 86.8676 10.7642 86.8676 11.7784V22H83.4074V19.902H83.2881C83.0693 20.3262 82.7611 20.724 82.3633 21.0952C81.9723 21.4598 81.4784 21.7547 80.8818 21.9801C80.2919 22.1989 79.5991 22.3082 78.8037 22.3082ZM79.7383 19.6634C80.4609 19.6634 81.0873 19.5208 81.6176 19.2358C82.1479 18.9441 82.5556 18.5597 82.8406 18.0824C83.1323 17.6051 83.2781 17.0848 83.2781 16.5213V14.7216C83.1654 14.8144 82.9732 14.9006 82.7014 14.9801C82.4363 15.0597 82.138 15.1293 81.8065 15.1889C81.4751 15.2486 81.147 15.3016 80.8222 15.348C80.4973 15.3944 80.2156 15.4342 79.977 15.4673C79.4401 15.5402 78.9595 15.6596 78.5352 15.8253C78.111 15.991 77.7762 16.223 77.531 16.5213C77.2857 16.813 77.1631 17.1908 77.1631 17.6548C77.1631 18.3177 77.405 18.8182 77.8889 19.1562C78.3728 19.4943 78.9893 19.6634 79.7383 19.6634ZM93.5264 13.0511V22H89.9269V6.72727H93.3673V9.32244H93.5462C93.8976 8.46733 94.4577 7.78788 95.2266 7.28409C96.0022 6.7803 96.9601 6.52841 98.1002 6.52841C99.1542 6.52841 100.072 6.75379 100.854 7.20454C101.643 7.6553 102.253 8.30824 102.684 9.16335C103.122 10.0185 103.337 11.0559 103.33 12.2756V22H99.7309V12.8324C99.7309 11.8116 99.4658 11.0128 98.9355 10.4361C98.4118 9.85937 97.6859 9.57102 96.7579 9.57102C96.1282 9.57102 95.568 9.71023 95.0775 9.98864C94.5936 10.2604 94.2124 10.6548 93.934 11.1719C93.6623 11.6889 93.5264 12.3153 93.5264 13.0511ZM117.21 22.3082C116.242 22.3082 115.37 22.1359 114.595 21.7912C113.826 21.4399 113.216 20.9228 112.765 20.2401C112.321 19.5573 112.099 18.7154 112.099 17.7145C112.099 16.8527 112.258 16.1402 112.576 15.5767C112.894 15.0133 113.328 14.5625 113.879 14.2244C114.429 13.8864 115.049 13.6312 115.738 13.4588C116.434 13.2798 117.153 13.1506 117.896 13.071C118.791 12.9782 119.516 12.8954 120.073 12.8224C120.63 12.7429 121.034 12.6236 121.286 12.4645C121.545 12.2988 121.674 12.0436 121.674 11.6989V11.6392C121.674 10.8902 121.452 10.3101 121.008 9.89915C120.564 9.48816 119.924 9.28267 119.089 9.28267C118.207 9.28267 117.508 9.47491 116.991 9.85938C116.48 10.2438 116.136 10.6979 115.957 11.2216L112.596 10.7443C112.861 9.81629 113.299 9.04072 113.908 8.41761C114.518 7.78788 115.264 7.31723 116.146 7.00568C117.027 6.6875 118.002 6.52841 119.069 6.52841C119.805 6.52841 120.537 6.61458 121.266 6.78693C121.996 6.95928 122.662 7.24432 123.265 7.64204C123.868 8.03314 124.352 8.56676 124.717 9.2429C125.088 9.91903 125.274 10.7642 125.274 11.7784V22H121.813V19.902H121.694C121.475 20.3262 121.167 20.724 120.769 21.0952C120.378 21.4598 119.884 21.7547 119.288 21.9801C118.698 22.1989 118.005 22.3082 117.21 22.3082ZM118.144 19.6634C118.867 19.6634 119.493 19.5208 120.024 19.2358C120.554 18.9441 120.962 18.5597 121.247 18.0824C121.538 17.6051 121.684 17.0848 121.684 16.5213V14.7216C121.571 14.8144 121.379 14.9006 121.107 14.9801C120.842 15.0597 120.544 15.1293 120.212 15.1889C119.881 15.2486 119.553 15.3016 119.228 15.348C118.903 15.3944 118.622 15.4342 118.383 15.4673C117.846 15.5402 117.365 15.6596 116.941 15.8253C116.517 15.991 116.182 16.223 115.937 16.5213C115.692 16.813 115.569 17.1908 115.569 17.6548C115.569 18.3177 115.811 18.8182 116.295 19.1562C116.779 19.4943 117.395 19.6634 118.144 19.6634ZM128.333 27.7273V6.72727H131.873V9.25284H132.081C132.267 8.88163 132.529 8.48722 132.867 8.0696C133.205 7.64536 133.662 7.28409 134.239 6.98579C134.816 6.68087 135.552 6.52841 136.447 6.52841C137.626 6.52841 138.69 6.83002 139.638 7.43324C140.593 8.02983 141.348 8.91477 141.905 10.0881C142.469 11.2547 142.75 12.6866 142.75 14.3835C142.75 16.0606 142.475 17.4858 141.925 18.6591C141.375 19.8324 140.626 20.7273 139.678 21.3438C138.73 21.9602 137.656 22.2685 136.456 22.2685C135.581 22.2685 134.856 22.1226 134.279 21.831C133.702 21.5393 133.238 21.188 132.887 20.777C132.542 20.3594 132.274 19.965 132.081 19.5938H131.932V27.7273H128.333ZM131.863 14.3636C131.863 15.3513 132.002 16.2164 132.28 16.9588C132.565 17.7012 132.973 18.2812 133.503 18.6989C134.04 19.1098 134.69 19.3153 135.452 19.3153C136.248 19.3153 136.914 19.1032 137.451 18.679C137.988 18.2481 138.392 17.6615 138.664 16.919C138.942 16.17 139.081 15.3182 139.081 14.3636C139.081 13.4157 138.946 12.5739 138.674 11.8381C138.402 11.1023 137.998 10.5256 137.461 10.108C136.924 9.69034 136.254 9.48153 135.452 9.48153C134.683 9.48153 134.03 9.68371 133.493 10.0881C132.956 10.4924 132.549 11.0592 132.27 11.7884C131.999 12.5175 131.863 13.3759 131.863 14.3636ZM145.273 27.7273V6.72727H148.813V9.25284H149.021C149.207 8.88163 149.469 8.48722 149.807 8.0696C150.145 7.64536 150.602 7.28409 151.179 6.98579C151.756 6.68087 152.492 6.52841 153.386 6.52841C154.566 6.52841 155.63 6.83002 156.578 7.43324C157.533 8.02983 158.288 8.91477 158.845 10.0881C159.409 11.2547 159.69 12.6866 159.69 14.3835C159.69 16.0606 159.415 17.4858 158.865 18.6591C158.315 19.8324 157.566 20.7273 156.618 21.3438C155.67 21.9602 154.596 22.2685 153.396 22.2685C152.521 22.2685 151.796 22.1226 151.219 21.831C150.642 21.5393 150.178 21.188 149.827 20.777C149.482 20.3594 149.214 19.965 149.021 19.5938H148.872V27.7273H145.273ZM148.803 14.3636C148.803 15.3513 148.942 16.2164 149.22 16.9588C149.505 17.7012 149.913 18.2812 150.443 18.6989C150.98 19.1098 151.63 19.3153 152.392 19.3153C153.188 19.3153 153.854 19.1032 154.391 18.679C154.928 18.2481 155.332 17.6615 155.604 16.919C155.882 16.17 156.021 15.3182 156.021 14.3636C156.021 13.4157 155.886 12.5739 155.614 11.8381C155.342 11.1023 154.938 10.5256 154.401 10.108C153.864 9.69034 153.194 9.48153 152.392 9.48153C151.623 9.48153 150.97 9.68371 150.433 10.0881C149.896 10.4924 149.489 11.0592 149.21 11.7884C148.939 12.5175 148.803 13.3759 148.803 14.3636ZM168.875 22.2983C167.383 22.2983 166.091 21.9702 164.997 21.3139C163.903 20.6577 163.055 19.7396 162.452 18.5597C161.855 17.3797 161.557 16.0009 161.557 14.4233C161.557 12.8456 161.855 11.4635 162.452 10.277C163.055 9.09043 163.903 8.16903 164.997 7.51278C166.091 6.85653 167.383 6.52841 168.875 6.52841C170.366 6.52841 171.659 6.85653 172.753 7.51278C173.846 8.16903 174.692 9.09043 175.288 10.277C175.891 11.4635 176.193 12.8456 176.193 14.4233C176.193 16.0009 175.891 17.3797 175.288 18.5597C174.692 19.7396 173.846 20.6577 172.753 21.3139C171.659 21.9702 170.366 22.2983 168.875 22.2983ZM168.895 19.4148C169.703 19.4148 170.38 19.1927 170.923 18.7486C171.467 18.2978 171.871 17.6946 172.136 16.9389C172.408 16.1832 172.544 15.3414 172.544 14.4134C172.544 13.4787 172.408 12.6335 172.136 11.8778C171.871 11.1155 171.467 10.509 170.923 10.0582C170.38 9.60748 169.703 9.3821 168.895 9.3821C168.066 9.3821 167.377 9.60748 166.827 10.0582C166.283 10.509 165.875 11.1155 165.603 11.8778C165.338 12.6335 165.206 13.4787 165.206 14.4134C165.206 15.3414 165.338 16.1832 165.603 16.9389C165.875 17.6946 166.283 18.2978 166.827 18.7486C167.377 19.1927 168.066 19.4148 168.895 19.4148ZM178.688 22V6.72727H182.287V22H178.688ZM180.498 4.55966C179.928 4.55966 179.437 4.37074 179.026 3.9929C178.615 3.60843 178.41 3.14773 178.41 2.61079C178.41 2.06723 178.615 1.60653 179.026 1.22869C179.437 0.844223 179.928 0.651988 180.498 0.651988C181.074 0.651988 181.565 0.844223 181.969 1.22869C182.38 1.60653 182.586 2.06723 182.586 2.61079C182.586 3.14773 182.38 3.60843 181.969 3.9929C181.565 4.37074 181.074 4.55966 180.498 4.55966ZM189.028 13.0511V22H185.429V6.72727H188.869V9.32244H189.048C189.399 8.46733 189.96 7.78788 190.729 7.28409C191.504 6.7803 192.462 6.52841 193.602 6.52841C194.656 6.52841 195.574 6.75379 196.356 7.20454C197.145 7.6553 197.755 8.30824 198.186 9.16335C198.623 10.0185 198.839 11.0559 198.832 12.2756V22H195.233V12.8324C195.233 11.8116 194.968 11.0128 194.437 10.4361C193.914 9.85937 193.188 9.57102 192.26 9.57102C191.63 9.57102 191.07 9.71023 190.579 9.98864C190.095 10.2604 189.714 10.6548 189.436 11.1719C189.164 11.6889 189.028 12.3153 189.028 13.0511ZM209.558 6.72727V9.51136H200.778V6.72727H209.558ZM202.946 3.06818H206.545V17.4062C206.545 17.8902 206.618 18.2614 206.764 18.5199C206.916 18.7718 207.115 18.9441 207.36 19.0369C207.606 19.1297 207.877 19.1761 208.176 19.1761C208.401 19.1761 208.607 19.1596 208.792 19.1264C208.984 19.0933 209.13 19.0634 209.23 19.0369L209.836 21.8509C209.644 21.9171 209.369 21.9901 209.011 22.0696C208.66 22.1491 208.229 22.1955 207.718 22.2088C206.817 22.2353 206.005 22.0994 205.282 21.8011C204.56 21.4962 203.986 21.0256 203.562 20.3892C203.144 19.7528 202.939 18.9574 202.946 18.0028V3.06818ZM212.008 22V6.72727H215.448V9.32244H215.627C215.946 8.44744 216.473 7.76468 217.208 7.27415C217.944 6.77699 218.822 6.52841 219.843 6.52841C220.877 6.52841 221.749 6.7803 222.458 7.28409C223.174 7.78125 223.678 8.4607 223.97 9.32244H224.129C224.467 8.47396 225.037 7.79782 225.839 7.29403C226.648 6.78362 227.606 6.52841 228.713 6.52841C230.118 6.52841 231.265 6.97254 232.153 7.86079C233.041 8.74905 233.485 10.045 233.485 11.7486V22H229.876V12.3054C229.876 11.3575 229.624 10.6648 229.12 10.2273C228.616 9.78314 228 9.56108 227.271 9.56108C226.402 9.56108 225.723 9.83286 225.232 10.3764C224.749 10.9134 224.507 11.6127 224.507 12.4744V22H220.977V12.1562C220.977 11.3674 220.738 10.7377 220.261 10.267C219.79 9.7964 219.174 9.56108 218.411 9.56108C217.894 9.56108 217.424 9.69365 217 9.95881C216.575 10.2173 216.237 10.5852 215.985 11.0625C215.733 11.5331 215.607 12.0833 215.607 12.7131V22H212.008ZM243.338 22.2983C241.807 22.2983 240.485 21.9801 239.371 21.3438C238.264 20.7008 237.412 19.7926 236.816 18.6193C236.219 17.4394 235.921 16.0507 235.921 14.4531C235.921 12.8821 236.219 11.5033 236.816 10.3168C237.419 9.12358 238.261 8.19555 239.341 7.53267C240.422 6.86316 241.691 6.52841 243.149 6.52841C244.091 6.52841 244.979 6.68087 245.814 6.98579C246.656 7.28409 247.398 7.74811 248.041 8.37784C248.691 9.00758 249.201 9.80966 249.573 10.7841C249.944 11.7519 250.129 12.9053 250.129 14.2443V15.348H237.611V12.9219H246.679C246.673 12.2325 246.523 11.6193 246.232 11.0824C245.94 10.5388 245.532 10.1113 245.009 9.79972C244.492 9.48816 243.888 9.33239 243.199 9.33239C242.463 9.33239 241.817 9.51136 241.26 9.86932C240.703 10.2206 240.269 10.6847 239.958 11.2614C239.653 11.8314 239.497 12.4579 239.49 13.1406V15.2585C239.49 16.1468 239.653 16.9091 239.977 17.5455C240.302 18.1752 240.756 18.6591 241.34 18.9972C241.923 19.3286 242.606 19.4943 243.388 19.4943C243.912 19.4943 244.386 19.4214 244.81 19.2756C245.234 19.1231 245.602 18.901 245.914 18.6094C246.225 18.3177 246.46 17.9564 246.62 17.5256L249.98 17.9034C249.768 18.7917 249.364 19.5672 248.767 20.2301C248.177 20.8864 247.422 21.3968 246.5 21.7614C245.579 22.1193 244.525 22.2983 243.338 22.2983ZM256.214 13.0511V22H252.615V6.72727H256.055V9.32244H256.234C256.585 8.46733 257.145 7.78788 257.914 7.28409C258.69 6.7803 259.648 6.52841 260.788 6.52841C261.842 6.52841 262.76 6.75379 263.542 7.20454C264.331 7.6553 264.941 8.30824 265.372 9.16335C265.809 10.0185 266.025 11.0559 266.018 12.2756V22H262.419V12.8324C262.419 11.8116 262.153 11.0128 261.623 10.4361C261.099 9.85937 260.374 9.57102 259.446 9.57102C258.816 9.57102 258.256 9.71023 257.765 9.98864C257.281 10.2604 256.9 10.6548 256.622 11.1719C256.35 11.6889 256.214 12.3153 256.214 13.0511ZM276.744 6.72727V9.51136H267.964V6.72727H276.744ZM270.131 3.06818H273.731V17.4062C273.731 17.8902 273.804 18.2614 273.949 18.5199C274.102 18.7718 274.301 18.9441 274.546 19.0369C274.791 19.1297 275.063 19.1761 275.361 19.1761C275.587 19.1761 275.792 19.1596 275.978 19.1264C276.17 19.0933 276.316 19.0634 276.415 19.0369L277.022 21.8509C276.83 21.9171 276.555 21.9901 276.197 22.0696C275.845 22.1491 275.414 22.1955 274.904 22.2088C274.003 22.2353 273.19 22.0994 272.468 21.8011C271.745 21.4962 271.172 21.0256 270.748 20.3892C270.33 19.7528 270.125 18.9574 270.131 18.0028V3.06818ZM5.00142 59L0.68608 43.7273H4.35511L7.03977 54.4659H7.17898L9.9233 43.7273H13.5526L16.2969 54.4062H16.446L19.0909 43.7273H22.7699L18.4446 59H14.696L11.8324 48.679H11.6236L8.75994 59H5.00142ZM24.723 59V43.7273H28.3225V59H24.723ZM26.5327 41.5597C25.9626 41.5597 25.4721 41.3707 25.0611 40.9929C24.6501 40.6084 24.4446 40.1477 24.4446 39.6108C24.4446 39.0672 24.6501 38.6065 25.0611 38.2287C25.4721 37.8442 25.9626 37.652 26.5327 37.652C27.1094 37.652 27.5999 37.8442 28.0043 38.2287C28.4153 38.6065 28.6208 39.0672 28.6208 39.6108C28.6208 40.1477 28.4153 40.6084 28.0043 40.9929C27.5999 41.3707 27.1094 41.5597 26.5327 41.5597ZM39.0902 43.7273V46.5114H30.3104V43.7273H39.0902ZM32.478 40.0682H36.0774V54.4062C36.0774 54.8902 36.1504 55.2614 36.2962 55.5199C36.4487 55.7718 36.6475 55.9441 36.8928 56.0369C37.138 56.1297 37.4098 56.1761 37.7081 56.1761C37.9335 56.1761 38.139 56.1596 38.3246 56.1264C38.5168 56.0933 38.6627 56.0634 38.7621 56.0369L39.3686 58.8509C39.1764 58.9171 38.9013 58.9901 38.5434 59.0696C38.192 59.1491 37.7612 59.1955 37.2507 59.2088C36.3492 59.2353 35.5372 59.0994 34.8147 58.8011C34.0921 58.4962 33.5187 58.0256 33.0945 57.3892C32.6769 56.7528 32.4714 55.9574 32.478 55.0028V40.0682ZM45.4681 50.0511V59H41.8687V38.6364H45.3885V46.3224H45.5675C45.9255 45.4607 46.479 44.7812 47.228 44.2841C47.9837 43.7803 48.9449 43.5284 50.1115 43.5284C51.1722 43.5284 52.0969 43.7505 52.8857 44.1946C53.6745 44.6387 54.2844 45.2884 54.7152 46.1435C55.1527 46.9986 55.3715 48.0426 55.3715 49.2756V59H51.7721V49.8324C51.7721 48.8049 51.5069 48.0062 50.9766 47.4361C50.4529 46.8594 49.7171 46.571 48.7692 46.571C48.1329 46.571 47.5628 46.7102 47.059 46.9886C46.5618 47.2604 46.1707 47.6548 45.8857 48.1719C45.6073 48.6889 45.4681 49.3153 45.4681 50.0511ZM8.6108 96.2983C7.07955 96.2983 5.7571 95.9801 4.64347 95.3438C3.53646 94.7008 2.68466 93.7926 2.08807 92.6193C1.49148 91.4394 1.19318 90.0507 1.19318 88.4531C1.19318 86.8821 1.49148 85.5033 2.08807 84.3168C2.69129 83.1236 3.53314 82.1955 4.61364 81.5327C5.69413 80.8632 6.96354 80.5284 8.42188 80.5284C9.36316 80.5284 10.2514 80.6809 11.0866 80.9858C11.9285 81.2841 12.6709 81.7481 13.3139 82.3778C13.9635 83.0076 14.474 83.8097 14.8452 84.7841C15.2164 85.7519 15.402 86.9053 15.402 88.2443V89.348H2.88352V86.9219H11.9517C11.9451 86.2325 11.7959 85.6193 11.5043 85.0824C11.2126 84.5388 10.8049 84.1113 10.2812 83.7997C9.7642 83.4882 9.16099 83.3324 8.47159 83.3324C7.7358 83.3324 7.08949 83.5114 6.53267 83.8693C5.97585 84.2206 5.54167 84.6847 5.23011 85.2614C4.92519 85.8314 4.76941 86.4579 4.76278 87.1406V89.2585C4.76278 90.1468 4.92519 90.9091 5.25 91.5455C5.57481 92.1752 6.02888 92.6591 6.61222 92.9972C7.19555 93.3286 7.87831 93.4943 8.66051 93.4943C9.18419 93.4943 9.65814 93.4214 10.0824 93.2756C10.5066 93.1231 10.8745 92.901 11.1861 92.6094C11.4976 92.3177 11.733 91.9564 11.892 91.5256L15.2528 91.9034C15.0407 92.7917 14.6364 93.5672 14.0398 94.2301C13.4498 94.8864 12.6941 95.3968 11.7727 95.7614C10.8513 96.1193 9.79735 96.2983 8.6108 96.2983ZM20.5021 80.7273L23.5845 86.3651L26.7166 80.7273H30.5249L25.9212 88.3636L30.6044 96H26.8161L23.5845 90.5014L20.3828 96H16.5646L21.2181 88.3636L16.684 80.7273H20.5021ZM32.749 101.727V80.7273H36.2887V83.2528H36.4975C36.6831 82.8816 36.945 82.4872 37.2831 82.0696C37.6211 81.6454 38.0785 81.2841 38.6552 80.9858C39.2319 80.6809 39.9677 80.5284 40.8626 80.5284C42.0425 80.5284 43.1064 80.83 44.0544 81.4332C45.0089 82.0298 45.7646 82.9148 46.3214 84.0881C46.8849 85.2547 47.1666 86.6866 47.1666 88.3835C47.1666 90.0606 46.8915 91.4858 46.3413 92.6591C45.7911 93.8324 45.042 94.7273 44.0941 95.3438C43.1462 95.9602 42.0724 96.2685 40.8725 96.2685C39.9975 96.2685 39.2717 96.1226 38.695 95.831C38.1183 95.5393 37.6543 95.188 37.3029 94.777C36.9582 94.3594 36.6898 93.965 36.4975 93.5938H36.3484V101.727H32.749ZM36.2788 88.3636C36.2788 89.3513 36.418 90.2164 36.6964 90.9588C36.9814 91.7012 37.3891 92.2812 37.9194 92.6989C38.4563 93.1098 39.106 93.3153 39.8683 93.3153C40.6637 93.3153 41.3299 93.1032 41.8669 92.679C42.4038 92.2481 42.8081 91.6615 43.0799 90.919C43.3583 90.17 43.4975 89.3182 43.4975 88.3636C43.4975 87.4157 43.3617 86.5739 43.0899 85.8381C42.8181 85.1023 42.4137 84.5256 41.8768 84.108C41.3399 83.6903 40.6704 83.4815 39.8683 83.4815C39.0993 83.4815 38.4464 83.6837 37.9095 84.0881C37.3725 84.4924 36.9649 85.0592 36.6865 85.7884C36.4147 86.5175 36.2788 87.3759 36.2788 88.3636ZM56.4503 96.2983C54.9191 96.2983 53.5966 95.9801 52.483 95.3438C51.376 94.7008 50.5242 93.7926 49.9276 92.6193C49.331 91.4394 49.0327 90.0507 49.0327 88.4531C49.0327 86.8821 49.331 85.5033 49.9276 84.3168C50.5308 83.1236 51.3727 82.1955 52.4532 81.5327C53.5337 80.8632 54.8031 80.5284 56.2614 80.5284C57.2027 80.5284 58.091 80.6809 58.9262 80.9858C59.768 81.2841 60.5105 81.7481 61.1535 82.3778C61.8031 83.0076 62.3135 83.8097 62.6847 84.7841C63.0559 85.7519 63.2415 86.9053 63.2415 88.2443V89.348H50.7231V86.9219H59.7912C59.7846 86.2325 59.6355 85.6193 59.3438 85.0824C59.0521 84.5388 58.6445 84.1113 58.1208 83.7997C57.6037 83.4882 57.0005 83.3324 56.3111 83.3324C55.5753 83.3324 54.929 83.5114 54.3722 83.8693C53.8154 84.2206 53.3812 84.6847 53.0696 85.2614C52.7647 85.8314 52.6089 86.4579 52.6023 87.1406V89.2585C52.6023 90.1468 52.7647 90.9091 53.0895 91.5455C53.4143 92.1752 53.8684 92.6591 54.4517 92.9972C55.0351 93.3286 55.7178 93.4943 56.5 93.4943C57.0237 93.4943 57.4977 93.4214 57.9219 93.2756C58.3462 93.1231 58.7141 92.901 59.0256 92.6094C59.3372 92.3177 59.5725 91.9564 59.7316 91.5256L63.0924 91.9034C62.8803 92.7917 62.4759 93.5672 61.8793 94.2301C61.2893 94.8864 60.5337 95.3968 59.6123 95.7614C58.6909 96.1193 57.6369 96.2983 56.4503 96.2983ZM65.7266 96V80.7273H69.2167V83.2727H69.3758C69.6542 82.3911 70.1314 81.7116 70.8076 81.2344C71.4903 80.7505 72.2692 80.5085 73.1442 80.5085C73.3431 80.5085 73.5652 80.5185 73.8104 80.5384C74.0623 80.5516 74.2711 80.5748 74.4368 80.608V83.919C74.2844 83.866 74.0424 83.8196 73.711 83.7798C73.3862 83.7334 73.0713 83.7102 72.7664 83.7102C72.1101 83.7102 71.5202 83.8527 70.9965 84.1378C70.4795 84.4162 70.0718 84.804 69.7735 85.3011C69.4752 85.7983 69.326 86.3717 69.326 87.0213V96H65.7266ZM84.7149 80.7273V83.5114H75.9351V80.7273H84.7149ZM78.1027 77.0682H81.7021V91.4062C81.7021 91.8902 81.775 92.2614 81.9209 92.5199C82.0733 92.7718 82.2722 92.9441 82.5175 93.0369C82.7627 93.1297 83.0345 93.1761 83.3328 93.1761C83.5582 93.1761 83.7637 93.1596 83.9493 93.1264C84.1415 93.0933 84.2874 93.0634 84.3868 93.0369L84.9933 95.8509C84.8011 95.9171 84.526 95.9901 84.168 96.0696C83.8167 96.1491 83.3858 96.1955 82.8754 96.2088C81.9739 96.2353 81.1619 96.0994 80.4393 95.8011C79.7168 95.4962 79.1434 95.0256 78.7192 94.3892C78.3016 93.7528 78.0961 92.9574 78.1027 92.0028V77.0682ZM99.0175 84.7642L95.7362 85.1222C95.6434 84.7907 95.481 84.4792 95.249 84.1875C95.0236 83.8958 94.7187 83.6605 94.3342 83.4815C93.9498 83.3026 93.4791 83.2131 92.9223 83.2131C92.1733 83.2131 91.5435 83.3755 91.0331 83.7003C90.5293 84.0251 90.2807 84.446 90.2874 84.9631C90.2807 85.4072 90.4431 85.7685 90.7746 86.0469C91.1127 86.3253 91.6695 86.554 92.445 86.733L95.0502 87.2898C96.4952 87.6013 97.5691 88.0952 98.2717 88.7713C98.981 89.4474 99.339 90.3324 99.3456 91.4261C99.339 92.3873 99.0573 93.2358 98.5004 93.9716C97.9503 94.7008 97.1846 95.2708 96.2036 95.6818C95.2225 96.0928 94.0956 96.2983 92.8229 96.2983C90.9536 96.2983 89.4488 95.9072 88.3087 95.125C87.1685 94.3362 86.4891 93.2391 86.2703 91.8338L89.7803 91.4957C89.9394 92.1851 90.2774 92.7055 90.7945 93.0568C91.3115 93.4081 91.9843 93.5838 92.8129 93.5838C93.6681 93.5838 94.3541 93.4081 94.8712 93.0568C95.3949 92.7055 95.6567 92.2713 95.6567 91.7543C95.6567 91.3168 95.4877 90.9555 95.1496 90.6705C94.8181 90.3854 94.3011 90.1667 93.5985 90.0142L90.9933 89.4673C89.5284 89.1624 88.4446 88.6487 87.7419 87.9261C87.0393 87.197 86.6913 86.2756 86.6979 85.1619C86.6913 84.2206 86.9465 83.4053 87.4635 82.7159C87.9872 82.0199 88.713 81.483 89.6411 81.1051C90.5757 80.7206 91.6529 80.5284 92.8726 80.5284C94.6624 80.5284 96.071 80.9096 97.0985 81.6719C98.1325 82.4342 98.7722 83.465 99.0175 84.7642Z" fill="black"/>
<path d="M68.4653 38.6364V59H64.8658V38.6364H68.4653ZM71.6066 59V43.7273H75.2061V59H71.6066ZM73.4163 41.5597C72.8462 41.5597 72.3557 41.3707 71.9447 40.9929C71.5337 40.6084 71.3282 40.1477 71.3282 39.6108C71.3282 39.0672 71.5337 38.6065 71.9447 38.2287C72.3557 37.8442 72.8462 37.652 73.4163 37.652C73.993 37.652 74.4835 37.8442 74.8879 38.2287C75.2989 38.6065 75.5043 39.0672 75.5043 39.6108C75.5043 40.1477 75.2989 40.6084 74.8879 40.9929C74.4835 41.3707 73.993 41.5597 73.4163 41.5597ZM86.0832 43.7273V46.5114H77.0548V43.7273H86.0832ZM79.3119 59V42.2855C79.3119 41.258 79.524 40.4029 79.9483 39.7202C80.3791 39.0374 80.9558 38.527 81.6784 38.1889C82.4009 37.8509 83.203 37.6818 84.0846 37.6818C84.7077 37.6818 85.2612 37.7315 85.7451 37.831C86.229 37.9304 86.587 38.0199 86.819 38.0994L86.1031 40.8835C85.9506 40.8371 85.7584 40.7907 85.5264 40.7443C85.2944 40.6913 85.0358 40.6648 84.7508 40.6648C84.0813 40.6648 83.6073 40.8272 83.3289 41.152C83.0572 41.4702 82.9213 41.9276 82.9213 42.5241V59H79.3119ZM94.5292 59.2983C92.998 59.2983 91.6755 58.9801 90.5619 58.3438C89.4549 57.7008 88.6031 56.7926 88.0065 55.6193C87.4099 54.4394 87.1116 53.0507 87.1116 51.4531C87.1116 49.8821 87.4099 48.5033 88.0065 47.3168C88.6097 46.1236 89.4516 45.1955 90.5321 44.5327C91.6126 43.8632 92.882 43.5284 94.3403 43.5284C95.2816 43.5284 96.1699 43.6809 97.0051 43.9858C97.8469 44.2841 98.5894 44.7481 99.2324 45.3778C99.882 46.0076 100.392 46.8097 100.764 47.7841C101.135 48.7519 101.32 49.9053 101.32 51.2443V52.348H88.802V49.9219H97.8701C97.8635 49.2325 97.7144 48.6193 97.4227 48.0824C97.131 47.5388 96.7234 47.1113 96.1997 46.7997C95.6826 46.4882 95.0794 46.3324 94.39 46.3324C93.6542 46.3324 93.0079 46.5114 92.4511 46.8693C91.8943 47.2206 91.4601 47.6847 91.1485 48.2614C90.8436 48.8314 90.6878 49.4579 90.6812 50.1406V52.2585C90.6812 53.1468 90.8436 53.9091 91.1684 54.5455C91.4932 55.1752 91.9473 55.6591 92.5307 55.9972C93.114 56.3286 93.7967 56.4943 94.5789 56.4943C95.1026 56.4943 95.5766 56.4214 96.0008 56.2756C96.4251 56.1231 96.793 55.901 97.1045 55.6094C97.4161 55.3177 97.6514 54.9564 97.8105 54.5256L101.171 54.9034C100.959 55.7917 100.555 56.5672 99.9582 57.2301C99.3682 57.8864 98.6126 58.3968 97.6912 58.7614C96.7698 59.1193 95.7158 59.2983 94.5292 59.2983ZM115.877 47.7642L112.595 48.1222C112.502 47.7907 112.34 47.4792 112.108 47.1875C111.883 46.8958 111.578 46.6605 111.193 46.4815C110.809 46.3026 110.338 46.2131 109.781 46.2131C109.032 46.2131 108.403 46.3755 107.892 46.7003C107.388 47.0251 107.14 47.446 107.146 47.9631C107.14 48.4072 107.302 48.7685 107.634 49.0469C107.972 49.3253 108.529 49.554 109.304 49.733L111.909 50.2898C113.354 50.6013 114.428 51.0952 115.131 51.7713C115.84 52.4474 116.198 53.3324 116.205 54.4261C116.198 55.3873 115.916 56.2358 115.36 56.9716C114.809 57.7008 114.044 58.2708 113.063 58.6818C112.082 59.0928 110.955 59.2983 109.682 59.2983C107.813 59.2983 106.308 58.9072 105.168 58.125C104.028 57.3362 103.348 56.2391 103.129 54.8338L106.639 54.4957C106.798 55.1851 107.136 55.7055 107.654 56.0568C108.171 56.4081 108.843 56.5838 109.672 56.5838C110.527 56.5838 111.213 56.4081 111.73 56.0568C112.254 55.7055 112.516 55.2713 112.516 54.7543C112.516 54.3168 112.347 53.9555 112.009 53.6705C111.677 53.3854 111.16 53.1667 110.458 53.0142L107.852 52.4673C106.387 52.1624 105.304 51.6487 104.601 50.9261C103.898 50.197 103.55 49.2756 103.557 48.1619C103.55 47.2206 103.806 46.4053 104.323 45.7159C104.846 45.0199 105.572 44.483 106.5 44.1051C107.435 43.7206 108.512 43.5284 109.732 43.5284C111.521 43.5284 112.93 43.9096 113.958 44.6719C114.992 45.4342 115.631 46.465 115.877 47.7642ZM126.239 43.7273V46.5114H117.459V43.7273H126.239ZM119.627 40.0682H123.226V54.4062C123.226 54.8902 123.299 55.2614 123.445 55.5199C123.598 55.7718 123.796 55.9441 124.042 56.0369C124.287 56.1297 124.559 56.1761 124.857 56.1761C125.082 56.1761 125.288 56.1596 125.474 56.1264C125.666 56.0933 125.812 56.0634 125.911 56.0369L126.518 58.8509C126.325 58.9171 126.05 58.9901 125.692 59.0696C125.341 59.1491 124.91 59.1955 124.4 59.2088C123.498 59.2353 122.686 59.0994 121.964 58.8011C121.241 58.4962 120.668 58.0256 120.243 57.3892C119.826 56.7528 119.62 55.9574 119.627 55.0028V40.0682ZM130.927 64.7273C130.436 64.7273 129.982 64.6875 129.564 64.608C129.153 64.535 128.825 64.4489 128.58 64.3494L129.415 61.5455C129.939 61.6979 130.406 61.7708 130.817 61.7642C131.228 61.7576 131.59 61.6283 131.901 61.3764C132.219 61.1312 132.488 60.7202 132.706 60.1435L133.015 59.3182L127.476 43.7273H131.295L134.814 55.2614H134.974L138.503 43.7273H142.331L136.216 60.8494C135.931 61.6581 135.554 62.3509 135.083 62.9276C134.612 63.5109 134.036 63.955 133.353 64.2599C132.677 64.5715 131.868 64.7273 130.927 64.7273ZM147.862 38.6364V59H144.262V38.6364H147.862ZM157.764 59.2983C156.233 59.2983 154.911 58.9801 153.797 58.3438C152.69 57.7008 151.838 56.7926 151.242 55.6193C150.645 54.4394 150.347 53.0507 150.347 51.4531C150.347 49.8821 150.645 48.5033 151.242 47.3168C151.845 46.1236 152.687 45.1955 153.767 44.5327C154.848 43.8632 156.117 43.5284 157.575 43.5284C158.517 43.5284 159.405 43.6809 160.24 43.9858C161.082 44.2841 161.825 44.7481 162.468 45.3778C163.117 46.0076 163.628 46.8097 163.999 47.7841C164.37 48.7519 164.556 49.9053 164.556 51.2443V52.348H152.037V49.9219H161.105C161.099 49.2325 160.95 48.6193 160.658 48.0824C160.366 47.5388 159.959 47.1113 159.435 46.7997C158.918 46.4882 158.315 46.3324 157.625 46.3324C156.889 46.3324 156.243 46.5114 155.686 46.8693C155.129 47.2206 154.695 47.6847 154.384 48.2614C154.079 48.8314 153.923 49.4579 153.916 50.1406V52.2585C153.916 53.1468 154.079 53.9091 154.404 54.5455C154.728 55.1752 155.182 55.6591 155.766 55.9972C156.349 56.3286 157.032 56.4943 157.814 56.4943C158.338 56.4943 158.812 56.4214 159.236 56.2756C159.66 56.1231 160.028 55.901 160.34 55.6094C160.651 55.3177 160.887 54.9564 161.046 54.5256L164.406 54.9034C164.194 55.7917 163.79 56.5672 163.193 57.2301C162.603 57.8864 161.848 58.3968 160.926 58.7614C160.005 59.1193 158.951 59.2983 157.764 59.2983ZM173.426 59V43.7273H176.866V46.3224H177.045C177.364 45.4474 177.89 44.7647 178.626 44.2741C179.362 43.777 180.24 43.5284 181.261 43.5284C182.295 43.5284 183.167 43.7803 183.876 44.2841C184.592 44.7812 185.096 45.4607 185.388 46.3224H185.547C185.885 45.474 186.455 44.7978 187.257 44.294C188.066 43.7836 189.024 43.5284 190.131 43.5284C191.536 43.5284 192.683 43.9725 193.571 44.8608C194.459 45.7491 194.903 47.045 194.903 48.7486V59H191.294V49.3054C191.294 48.3575 191.042 47.6648 190.538 47.2273C190.034 46.7831 189.418 46.5611 188.689 46.5611C187.82 46.5611 187.141 46.8329 186.65 47.3764C186.167 47.9134 185.925 48.6127 185.925 49.4744V59H182.395V49.1562C182.395 48.3674 182.156 47.7377 181.679 47.267C181.208 46.7964 180.592 46.5611 179.829 46.5611C179.312 46.5611 178.842 46.6937 178.417 46.9588C177.993 47.2173 177.655 47.5852 177.403 48.0625C177.151 48.5331 177.025 49.0833 177.025 49.7131V59H173.426ZM204.756 59.2983C203.225 59.2983 201.903 58.9801 200.789 58.3438C199.682 57.7008 198.83 56.7926 198.234 55.6193C197.637 54.4394 197.339 53.0507 197.339 51.4531C197.339 49.8821 197.637 48.5033 198.234 47.3168C198.837 46.1236 199.679 45.1955 200.759 44.5327C201.84 43.8632 203.109 43.5284 204.567 43.5284C205.509 43.5284 206.397 43.6809 207.232 43.9858C208.074 44.2841 208.816 44.7481 209.459 45.3778C210.109 46.0076 210.619 46.8097 210.991 47.7841C211.362 48.7519 211.547 49.9053 211.547 51.2443V52.348H199.029V49.9219H208.097C208.091 49.2325 207.941 48.6193 207.65 48.0824C207.358 47.5388 206.95 47.1113 206.427 46.7997C205.91 46.4882 205.306 46.3324 204.617 46.3324C203.881 46.3324 203.235 46.5114 202.678 46.8693C202.121 47.2206 201.687 47.6847 201.376 48.2614C201.071 48.8314 200.915 49.4579 200.908 50.1406V52.2585C200.908 53.1468 201.071 53.9091 201.395 54.5455C201.72 55.1752 202.174 55.6591 202.758 55.9972C203.341 56.3286 204.024 56.4943 204.806 56.4943C205.33 56.4943 205.804 56.4214 206.228 56.2756C206.652 56.1231 207.02 55.901 207.332 55.6094C207.643 55.3177 207.878 54.9564 208.038 54.5256L211.398 54.9034C211.186 55.7917 210.782 56.5672 210.185 57.2301C209.595 57.8864 208.84 58.3968 207.918 58.7614C206.997 59.1193 205.943 59.2983 204.756 59.2983ZM219.7 59.2685C218.5 59.2685 217.426 58.9602 216.479 58.3438C215.531 57.7273 214.782 56.8324 214.231 55.6591C213.681 54.4858 213.406 53.0606 213.406 51.3835C213.406 49.6866 213.685 48.2547 214.241 47.0881C214.805 45.9148 215.564 45.0298 216.518 44.4332C217.473 43.83 218.537 43.5284 219.71 43.5284C220.605 43.5284 221.341 43.6809 221.917 43.9858C222.494 44.2841 222.952 44.6454 223.29 45.0696C223.628 45.4872 223.89 45.8816 224.075 46.2528H224.224V38.6364H227.834V59H224.294V56.5938H224.075C223.89 56.965 223.621 57.3594 223.27 57.777C222.918 58.188 222.454 58.5393 221.878 58.831C221.301 59.1226 220.575 59.2685 219.7 59.2685ZM220.704 56.3153C221.467 56.3153 222.116 56.1098 222.653 55.6989C223.19 55.2812 223.598 54.7012 223.876 53.9588C224.155 53.2164 224.294 52.3513 224.294 51.3636C224.294 50.3759 224.155 49.5175 223.876 48.7884C223.605 48.0592 223.2 47.4924 222.663 47.0881C222.133 46.6837 221.48 46.4815 220.704 46.4815C219.902 46.4815 219.233 46.6903 218.696 47.108C218.159 47.5256 217.755 48.1023 217.483 48.8381C217.211 49.5739 217.075 50.4157 217.075 51.3636C217.075 52.3182 217.211 53.17 217.483 53.919C217.761 54.6615 218.169 55.2481 218.706 55.679C219.249 56.1032 219.916 56.3153 220.704 56.3153ZM231.109 59V43.7273H234.709V59H231.109ZM232.919 41.5597C232.349 41.5597 231.858 41.3707 231.447 40.9929C231.036 40.6084 230.831 40.1477 230.831 39.6108C230.831 39.0672 231.036 38.6065 231.447 38.2287C231.858 37.8442 232.349 37.652 232.919 37.652C233.496 37.652 233.986 37.8442 234.391 38.2287C234.802 38.6065 235.007 39.0672 235.007 39.6108C235.007 40.1477 234.802 40.6084 234.391 40.9929C233.986 41.3707 233.496 41.5597 232.919 41.5597ZM244.512 59.2983C242.987 59.2983 241.678 58.9635 240.584 58.294C239.497 57.6245 238.659 56.6998 238.069 55.5199C237.485 54.3333 237.194 52.9678 237.194 51.4233C237.194 49.8722 237.492 48.5033 238.089 47.3168C238.685 46.1236 239.527 45.1955 240.614 44.5327C241.708 43.8632 243.001 43.5284 244.492 43.5284C245.732 43.5284 246.829 43.7571 247.783 44.2145C248.744 44.6652 249.51 45.3049 250.08 46.1335C250.65 46.9555 250.975 47.9167 251.055 49.017H247.614C247.475 48.2812 247.144 47.6681 246.62 47.1776C246.103 46.6804 245.41 46.4318 244.542 46.4318C243.806 46.4318 243.16 46.6307 242.603 47.0284C242.046 47.4195 241.612 47.983 241.3 48.7188C240.995 49.4545 240.843 50.3362 240.843 51.3636C240.843 52.4044 240.995 53.2992 241.3 54.0483C241.605 54.7907 242.033 55.3641 242.583 55.7685C243.14 56.1662 243.793 56.3651 244.542 56.3651C245.072 56.3651 245.546 56.2656 245.964 56.0668C246.388 55.8613 246.743 55.5663 247.028 55.1818C247.313 54.7973 247.508 54.33 247.614 53.7798H251.055C250.968 54.8603 250.65 55.8182 250.1 56.6534C249.55 57.482 248.801 58.1316 247.853 58.6023C246.905 59.0663 245.791 59.2983 244.512 59.2983ZM253.45 59V43.7273H257.05V59H253.45ZM255.26 41.5597C254.69 41.5597 254.199 41.3707 253.788 40.9929C253.377 40.6084 253.172 40.1477 253.172 39.6108C253.172 39.0672 253.377 38.6065 253.788 38.2287C254.199 37.8442 254.69 37.652 255.26 37.652C255.837 37.652 256.327 37.8442 256.731 38.2287C257.142 38.6065 257.348 39.0672 257.348 39.6108C257.348 40.1477 257.142 40.6084 256.731 40.9929C256.327 41.3707 255.837 41.5597 255.26 41.5597ZM263.79 50.0511V59H260.191V43.7273H263.631V46.3224H263.81C264.162 45.4673 264.722 44.7879 265.491 44.2841C266.266 43.7803 267.224 43.5284 268.364 43.5284C269.418 43.5284 270.336 43.7538 271.119 44.2045C271.907 44.6553 272.517 45.3082 272.948 46.1634C273.386 47.0185 273.601 48.0559 273.594 49.2756V59H269.995V49.8324C269.995 48.8116 269.73 48.0128 269.2 47.4361C268.676 46.8594 267.95 46.571 267.022 46.571C266.392 46.571 265.832 46.7102 265.342 46.9886C264.858 47.2604 264.476 47.6548 264.198 48.1719C263.926 48.6889 263.79 49.3153 263.79 50.0511ZM283.455 59.2983C281.924 59.2983 280.601 58.9801 279.488 58.3438C278.381 57.7008 277.529 56.7926 276.932 55.6193C276.336 54.4394 276.037 53.0507 276.037 51.4531C276.037 49.8821 276.336 48.5033 276.932 47.3168C277.535 46.1236 278.377 45.1955 279.458 44.5327C280.538 43.8632 281.808 43.5284 283.266 43.5284C284.207 43.5284 285.095 43.6809 285.931 43.9858C286.773 44.2841 287.515 44.7481 288.158 45.3778C288.808 46.0076 289.318 46.8097 289.689 47.7841C290.06 48.7519 290.246 49.9053 290.246 51.2443V52.348H277.728V49.9219H286.796C286.789 49.2325 286.64 48.6193 286.348 48.0824C286.057 47.5388 285.649 47.1113 285.125 46.7997C284.608 46.4882 284.005 46.3324 283.316 46.3324C282.58 46.3324 281.934 46.5114 281.377 46.8693C280.82 47.2206 280.386 47.6847 280.074 48.2614C279.769 48.8314 279.613 49.4579 279.607 50.1406V52.2585C279.607 53.1468 279.769 53.9091 280.094 54.5455C280.419 55.1752 280.873 55.6591 281.456 55.9972C282.04 56.3286 282.722 56.4943 283.505 56.4943C284.028 56.4943 284.502 56.4214 284.926 56.2756C285.351 56.1231 285.719 55.901 286.03 55.6094C286.342 55.3177 286.577 54.9564 286.736 54.5256L290.097 54.9034C289.885 55.7917 289.48 56.5672 288.884 57.2301C288.294 57.8864 287.538 58.3968 286.617 58.7614C285.695 59.1193 284.641 59.2983 283.455 59.2983Z" fill="url(#paint0_linear_3_607)"/>
<defs>
<linearGradient id="paint0_linear_3_607" x1="-120.074" y1="24.4298" x2="222.027" y2="81.9842" gradientUnits="userSpaceOnUse">
<stop stop-color="#1173B3"/>
<stop offset="1" stop-color="#0CB9B3"/>
</linearGradient>
</defs>
</svg>
