<svg width="477" height="93" viewBox="0 0 477 93" fill="none" xmlns="http://www.w3.org/2000/svg">
<path d="M1.19602 31V1.90909H11.8494C13.9138 1.90909 15.6231 2.25 16.9773 2.93182C18.3314 3.60417 19.3447 4.51799 20.017 5.6733C20.6894 6.81913 21.0256 8.11174 21.0256 9.55114C21.0256 10.7633 20.803 11.786 20.358 12.6193C19.9129 13.4432 19.3163 14.1061 18.5682 14.608C17.8295 15.1004 17.0152 15.4602 16.125 15.6875V15.9716C17.0909 16.0189 18.0331 16.3314 18.9517 16.9091C19.8797 17.4773 20.6468 18.2869 21.2528 19.3381C21.8589 20.3892 22.1619 21.6676 22.1619 23.1733C22.1619 24.66 21.8116 25.9953 21.1108 27.179C20.4195 28.3532 19.3494 29.286 17.9006 29.9773C16.4517 30.6591 14.6004 31 12.3466 31H1.19602ZM5.58523 27.2358H11.9205C14.0227 27.2358 15.5284 26.8286 16.4375 26.0142C17.3466 25.1998 17.8011 24.1818 17.8011 22.9602C17.8011 22.0417 17.5691 21.1989 17.1051 20.4318C16.6411 19.6648 15.9782 19.054 15.1165 18.5994C14.2642 18.1449 13.2509 17.9176 12.0767 17.9176H5.58523V27.2358ZM5.58523 14.4943H11.4659C12.4508 14.4943 13.3362 14.3049 14.1222 13.9261C14.9176 13.5473 15.5473 13.017 16.0114 12.3352C16.4848 11.6439 16.7216 10.8295 16.7216 9.89205C16.7216 8.68939 16.3002 7.68087 15.4574 6.86648C14.6146 6.05208 13.322 5.64489 11.5795 5.64489H5.58523V14.4943ZM35.4173 31.4403C33.3719 31.4403 31.5868 30.9716 30.0622 30.0341C28.5376 29.0966 27.3539 27.785 26.5111 26.0994C25.6683 24.4138 25.2469 22.4441 25.2469 20.1903C25.2469 17.9271 25.6683 15.9479 26.5111 14.2528C27.3539 12.5578 28.5376 11.2415 30.0622 10.304C31.5868 9.36648 33.3719 8.89773 35.4173 8.89773C37.4628 8.89773 39.2478 9.36648 40.7724 10.304C42.2971 11.2415 43.4808 12.5578 44.3236 14.2528C45.1664 15.9479 45.5878 17.9271 45.5878 20.1903C45.5878 22.4441 45.1664 24.4138 44.3236 26.0994C43.4808 27.785 42.2971 29.0966 40.7724 30.0341C39.2478 30.9716 37.4628 31.4403 35.4173 31.4403ZM35.4315 27.875C36.7573 27.875 37.8558 27.5246 38.727 26.8239C39.5982 26.1231 40.2421 25.1903 40.6588 24.0256C41.0849 22.8608 41.298 21.5777 41.298 20.1761C41.298 18.7841 41.0849 17.5057 40.6588 16.3409C40.2421 15.1667 39.5982 14.2244 38.727 13.5142C37.8558 12.804 36.7573 12.4489 35.4315 12.4489C34.0963 12.4489 32.9884 12.804 32.1077 13.5142C31.2365 14.2244 30.5878 15.1667 30.1616 16.3409C29.745 17.5057 29.5366 18.7841 29.5366 20.1761C29.5366 21.5777 29.745 22.8608 30.1616 24.0256C30.5878 25.1903 31.2365 26.1231 32.1077 26.8239C32.9884 27.5246 34.0963 27.875 35.4315 27.875ZM58.7189 31.4403C56.6734 31.4403 54.8884 30.9716 53.3638 30.0341C51.8392 29.0966 50.6554 27.785 49.8126 26.0994C48.9698 24.4138 48.5484 22.4441 48.5484 20.1903C48.5484 17.9271 48.9698 15.9479 49.8126 14.2528C50.6554 12.5578 51.8392 11.2415 53.3638 10.304C54.8884 9.36648 56.6734 8.89773 58.7189 8.89773C60.7643 8.89773 62.5494 9.36648 64.074 10.304C65.5986 11.2415 66.7823 12.5578 67.6251 14.2528C68.4679 15.9479 68.8893 17.9271 68.8893 20.1903C68.8893 22.4441 68.4679 24.4138 67.6251 26.0994C66.7823 27.785 65.5986 29.0966 64.074 30.0341C62.5494 30.9716 60.7643 31.4403 58.7189 31.4403ZM58.7331 27.875C60.0589 27.875 61.1573 27.5246 62.0286 26.8239C62.8998 26.1231 63.5437 25.1903 63.9604 24.0256C64.3865 22.8608 64.5996 21.5777 64.5996 20.1761C64.5996 18.7841 64.3865 17.5057 63.9604 16.3409C63.5437 15.1667 62.8998 14.2244 62.0286 13.5142C61.1573 12.804 60.0589 12.4489 58.7331 12.4489C57.3979 12.4489 56.2899 12.804 55.4092 13.5142C54.538 14.2244 53.8893 15.1667 53.4632 16.3409C53.0465 17.5057 52.8382 18.7841 52.8382 20.1761C52.8382 21.5777 53.0465 22.8608 53.4632 24.0256C53.8893 25.1903 54.538 26.1231 55.4092 26.8239C56.2899 27.5246 57.3979 27.875 58.7331 27.875ZM76.7364 23.5994L76.708 18.4148H77.4466L86.1398 9.18182H91.225L81.3102 19.6932H80.6426L76.7364 23.5994ZM72.8301 31V1.90909H77.0773V31H72.8301ZM86.6085 31L78.796 20.6307L81.7222 17.6619L91.8216 31H86.6085ZM110.431 31.483C109.049 31.483 107.799 31.2273 106.681 30.7159C105.564 30.1951 104.678 29.4422 104.025 28.4574C103.381 27.4725 103.059 26.2652 103.059 24.8352C103.059 23.6042 103.296 22.5909 103.769 21.7955C104.243 21 104.882 20.3703 105.687 19.9062C106.492 19.4422 107.391 19.0919 108.386 18.8551C109.38 18.6184 110.393 18.4384 111.425 18.3153C112.732 18.1638 113.793 18.0407 114.607 17.946C115.422 17.8419 116.013 17.6761 116.383 17.4489C116.752 17.2216 116.937 16.8523 116.937 16.3409V16.2415C116.937 15.0009 116.586 14.0398 115.886 13.358C115.194 12.6761 114.162 12.3352 112.789 12.3352C111.359 12.3352 110.232 12.6525 109.408 13.2869C108.594 13.9119 108.031 14.608 107.718 15.375L103.727 14.4659C104.2 13.1402 104.891 12.0701 105.8 11.2557C106.719 10.4318 107.775 9.83523 108.968 9.46591C110.161 9.08712 111.416 8.89773 112.732 8.89773C113.603 8.89773 114.527 9.00189 115.502 9.21023C116.487 9.40909 117.406 9.77841 118.258 10.3182C119.12 10.858 119.825 11.6297 120.374 12.6335C120.924 13.6278 121.198 14.9205 121.198 16.5114V31H117.05V28.017H116.88C116.605 28.5663 116.193 29.1061 115.644 29.6364C115.095 30.1667 114.389 30.607 113.528 30.9574C112.666 31.3078 111.634 31.483 110.431 31.483ZM111.354 28.0739C112.529 28.0739 113.532 27.8419 114.366 27.3778C115.209 26.9138 115.848 26.3078 116.283 25.5597C116.728 24.8021 116.951 23.9924 116.951 23.1307V20.3182C116.799 20.4697 116.506 20.6117 116.07 20.7443C115.644 20.8674 115.156 20.9763 114.607 21.071C114.058 21.1562 113.523 21.2367 113.002 21.3125C112.481 21.3788 112.046 21.4356 111.695 21.483C110.871 21.5871 110.119 21.7623 109.437 22.0085C108.764 22.2547 108.225 22.6098 107.817 23.0739C107.42 23.5284 107.221 24.1345 107.221 24.892C107.221 25.9432 107.609 26.7386 108.386 27.2784C109.162 27.8087 110.152 28.0739 111.354 28.0739ZM130.302 18.0455V31H126.055V9.18182H130.132V12.733H130.402C130.904 11.5777 131.69 10.6496 132.76 9.94886C133.839 9.24811 135.198 8.89773 136.836 8.89773C138.323 8.89773 139.625 9.21023 140.743 9.83523C141.86 10.4508 142.727 11.3693 143.342 12.5909C143.958 13.8125 144.265 15.3229 144.265 17.1222V31H140.018V17.6335C140.018 16.0521 139.606 14.8163 138.782 13.9261C137.959 13.0265 136.827 12.5767 135.387 12.5767C134.403 12.5767 133.527 12.7898 132.76 13.2159C132.002 13.642 131.401 14.267 130.956 15.0909C130.52 15.9053 130.302 16.8902 130.302 18.0455ZM165.297 31.483C163.914 31.483 162.664 31.2273 161.547 30.7159C160.429 30.1951 159.544 29.4422 158.89 28.4574C158.247 27.4725 157.925 26.2652 157.925 24.8352C157.925 23.6042 158.161 22.5909 158.635 21.7955C159.108 21 159.747 20.3703 160.552 19.9062C161.357 19.4422 162.257 19.0919 163.251 18.8551C164.246 18.6184 165.259 18.4384 166.291 18.3153C167.598 18.1638 168.658 18.0407 169.473 17.946C170.287 17.8419 170.879 17.6761 171.248 17.4489C171.618 17.2216 171.802 16.8523 171.802 16.3409V16.2415C171.802 15.0009 171.452 14.0398 170.751 13.358C170.06 12.6761 169.028 12.3352 167.655 12.3352C166.225 12.3352 165.098 12.6525 164.274 13.2869C163.46 13.9119 162.896 14.608 162.584 15.375L158.592 14.4659C159.066 13.1402 159.757 12.0701 160.666 11.2557C161.585 10.4318 162.64 9.83523 163.834 9.46591C165.027 9.08712 166.282 8.89773 167.598 8.89773C168.469 8.89773 169.392 9.00189 170.368 9.21023C171.353 9.40909 172.271 9.77841 173.123 10.3182C173.985 10.858 174.691 11.6297 175.24 12.6335C175.789 13.6278 176.064 14.9205 176.064 16.5114V31H171.916V28.017H171.746C171.471 28.5663 171.059 29.1061 170.51 29.6364C169.961 30.1667 169.255 30.607 168.393 30.9574C167.532 31.3078 166.499 31.483 165.297 31.483ZM166.22 28.0739C167.394 28.0739 168.398 27.8419 169.231 27.3778C170.074 26.9138 170.713 26.3078 171.149 25.5597C171.594 24.8021 171.817 23.9924 171.817 23.1307V20.3182C171.665 20.4697 171.372 20.6117 170.936 20.7443C170.51 20.8674 170.022 20.9763 169.473 21.071C168.924 21.1562 168.389 21.2367 167.868 21.3125C167.347 21.3788 166.911 21.4356 166.561 21.483C165.737 21.5871 164.984 21.7623 164.302 22.0085C163.63 22.2547 163.09 22.6098 162.683 23.0739C162.285 23.5284 162.087 24.1345 162.087 24.892C162.087 25.9432 162.475 26.7386 163.251 27.2784C164.028 27.8087 165.017 28.0739 166.22 28.0739ZM180.921 39.1818V9.18182H185.068V12.7188H185.424C185.67 12.2642 186.025 11.7386 186.489 11.142C186.953 10.5455 187.597 10.0246 188.421 9.57955C189.245 9.125 190.334 8.89773 191.688 8.89773C193.449 8.89773 195.021 9.3428 196.404 10.233C197.786 11.1231 198.871 12.4062 199.657 14.0824C200.452 15.7585 200.85 17.7756 200.85 20.1335C200.85 22.4915 200.457 24.5133 199.671 26.1989C198.885 27.875 197.805 29.1676 196.432 30.0767C195.059 30.9763 193.492 31.4261 191.73 31.4261C190.405 31.4261 189.32 31.2036 188.478 30.7585C187.644 30.3134 186.991 29.7926 186.517 29.196C186.044 28.5994 185.679 28.0691 185.424 27.6051H185.168V39.1818H180.921ZM185.083 20.0909C185.083 21.625 185.305 22.9697 185.75 24.125C186.195 25.2803 186.839 26.1847 187.682 26.8381C188.525 27.482 189.557 27.804 190.779 27.804C192.048 27.804 193.108 27.4678 193.961 26.7955C194.813 26.1136 195.457 25.1903 195.892 24.0256C196.337 22.8608 196.56 21.5492 196.56 20.0909C196.56 18.6515 196.342 17.3589 195.907 16.2131C195.48 15.0672 194.836 14.1629 193.975 13.5C193.122 12.8371 192.057 12.5057 190.779 12.5057C189.548 12.5057 188.506 12.8229 187.654 13.4574C186.811 14.0919 186.172 14.9773 185.736 16.1136C185.3 17.25 185.083 18.5758 185.083 20.0909ZM204.808 39.1818V9.18182H208.956V12.7188H209.311C209.557 12.2642 209.912 11.7386 210.376 11.142C210.84 10.5455 211.484 10.0246 212.308 9.57955C213.132 9.125 214.221 8.89773 215.575 8.89773C217.337 8.89773 218.909 9.3428 220.291 10.233C221.674 11.1231 222.758 12.4062 223.544 14.0824C224.339 15.7585 224.737 17.7756 224.737 20.1335C224.737 22.4915 224.344 24.5133 223.558 26.1989C222.772 27.875 221.693 29.1676 220.32 30.0767C218.946 30.9763 217.379 31.4261 215.618 31.4261C214.292 31.4261 213.208 31.2036 212.365 30.7585C211.532 30.3134 210.878 29.7926 210.405 29.196C209.931 28.5994 209.567 28.0691 209.311 27.6051H209.055V39.1818H204.808ZM208.97 20.0909C208.97 21.625 209.193 22.9697 209.638 24.125C210.083 25.2803 210.727 26.1847 211.57 26.8381C212.412 27.482 213.445 27.804 214.666 27.804C215.935 27.804 216.996 27.4678 217.848 26.7955C218.7 26.1136 219.344 25.1903 219.78 24.0256C220.225 22.8608 220.447 21.5492 220.447 20.0909C220.447 18.6515 220.23 17.3589 219.794 16.2131C219.368 15.0672 218.724 14.1629 217.862 13.5C217.01 12.8371 215.945 12.5057 214.666 12.5057C213.435 12.5057 212.393 12.8229 211.541 13.4574C210.698 14.0919 210.059 14.9773 209.624 16.1136C209.188 17.25 208.97 18.5758 208.97 20.0909ZM237.886 31.4403C235.841 31.4403 234.056 30.9716 232.531 30.0341C231.006 29.0966 229.823 27.785 228.98 26.0994C228.137 24.4138 227.716 22.4441 227.716 20.1903C227.716 17.9271 228.137 15.9479 228.98 14.2528C229.823 12.5578 231.006 11.2415 232.531 10.304C234.056 9.36648 235.841 8.89773 237.886 8.89773C239.932 8.89773 241.717 9.36648 243.241 10.304C244.766 11.2415 245.95 12.5578 246.792 14.2528C247.635 15.9479 248.057 17.9271 248.057 20.1903C248.057 22.4441 247.635 24.4138 246.792 26.0994C245.95 27.785 244.766 29.0966 243.241 30.0341C241.717 30.9716 239.932 31.4403 237.886 31.4403ZM237.9 27.875C239.226 27.875 240.325 27.5246 241.196 26.8239C242.067 26.1231 242.711 25.1903 243.128 24.0256C243.554 22.8608 243.767 21.5777 243.767 20.1761C243.767 18.7841 243.554 17.5057 243.128 16.3409C242.711 15.1667 242.067 14.2244 241.196 13.5142C240.325 12.804 239.226 12.4489 237.9 12.4489C236.565 12.4489 235.457 12.804 234.576 13.5142C233.705 14.2244 233.057 15.1667 232.63 16.3409C232.214 17.5057 232.005 18.7841 232.005 20.1761C232.005 21.5777 232.214 22.8608 232.63 24.0256C233.057 25.1903 233.705 26.1231 234.576 26.8239C235.457 27.5246 236.565 27.875 237.9 27.875ZM251.997 31V9.18182H256.244V31H251.997ZM254.142 5.81534C253.404 5.81534 252.769 5.56913 252.239 5.0767C251.718 4.57481 251.458 3.97822 251.458 3.28693C251.458 2.58617 251.718 1.98958 252.239 1.49716C252.769 0.995264 253.404 0.744318 254.142 0.744318C254.881 0.744318 255.511 0.995264 256.031 1.49716C256.562 1.98958 256.827 2.58617 256.827 3.28693C256.827 3.97822 256.562 4.57481 256.031 5.0767C255.511 5.56913 254.881 5.81534 254.142 5.81534ZM265.405 18.0455V31H261.158V9.18182H265.235V12.733H265.505C266.007 11.5777 266.793 10.6496 267.863 9.94886C268.942 9.24811 270.301 8.89773 271.939 8.89773C273.426 8.89773 274.728 9.21023 275.846 9.83523C276.963 10.4508 277.83 11.3693 278.445 12.5909C279.061 13.8125 279.368 15.3229 279.368 17.1222V31H275.121V17.6335C275.121 16.0521 274.709 14.8163 273.886 13.9261C273.062 13.0265 271.93 12.5767 270.491 12.5767C269.506 12.5767 268.63 12.7898 267.863 13.2159C267.105 13.642 266.504 14.267 266.059 15.0909C265.623 15.9053 265.405 16.8902 265.405 18.0455ZM294.449 9.18182V12.5909H282.532V9.18182H294.449ZM285.728 3.95455H289.975V24.5938C289.975 25.4176 290.098 26.0379 290.344 26.4545C290.59 26.8617 290.907 27.1411 291.296 27.2926C291.693 27.4347 292.124 27.5057 292.588 27.5057C292.929 27.5057 293.228 27.482 293.483 27.4347C293.739 27.3873 293.938 27.3494 294.08 27.321L294.847 30.8295C294.601 30.9242 294.25 31.0189 293.796 31.1136C293.341 31.2178 292.773 31.2746 292.091 31.2841C290.974 31.303 289.932 31.1042 288.966 30.6875C288 30.2708 287.219 29.6269 286.622 28.7557C286.026 27.8845 285.728 26.7907 285.728 25.4744V3.95455ZM298.347 31V9.18182H302.424V12.733H302.694C303.148 11.5303 303.892 10.5928 304.924 9.92045C305.956 9.23864 307.192 8.89773 308.631 8.89773C310.09 8.89773 311.311 9.23864 312.296 9.92045C313.29 10.6023 314.024 11.5398 314.498 12.733H314.725C315.246 11.5682 316.075 10.6402 317.211 9.94886C318.347 9.24811 319.701 8.89773 321.273 8.89773C323.253 8.89773 324.867 9.51799 326.117 10.7585C327.377 11.9991 328.006 13.8693 328.006 16.3693V31H323.759V16.767C323.759 15.2898 323.357 14.2197 322.552 13.5568C321.747 12.8939 320.786 12.5625 319.668 12.5625C318.286 12.5625 317.211 12.9886 316.444 13.8409C315.677 14.6837 315.293 15.768 315.293 17.0938V31H311.06V16.4972C311.06 15.3134 310.691 14.3617 309.952 13.642C309.214 12.9223 308.253 12.5625 307.069 12.5625C306.264 12.5625 305.521 12.7756 304.839 13.2017C304.166 13.6184 303.622 14.2008 303.205 14.9489C302.798 15.697 302.594 16.5634 302.594 17.5483V31H298.347ZM342.302 31.4403C340.153 31.4403 338.301 30.9811 336.748 30.0625C335.205 29.1345 334.012 27.8324 333.169 26.1562C332.335 24.4706 331.919 22.4962 331.919 20.233C331.919 17.9981 332.335 16.0284 333.169 14.3239C334.012 12.6193 335.186 11.2888 336.691 10.3324C338.207 9.37595 339.977 8.89773 342.004 8.89773C343.235 8.89773 344.428 9.10133 345.584 9.50852C346.739 9.91572 347.776 10.5549 348.694 11.4261C349.613 12.2973 350.337 13.429 350.868 14.821C351.398 16.2036 351.663 17.8845 351.663 19.8636V21.3693H334.319V18.1875H347.501C347.501 17.0701 347.274 16.0805 346.819 15.2188C346.365 14.3475 345.726 13.661 344.902 13.1591C344.087 12.6572 343.131 12.4062 342.032 12.4062C340.839 12.4062 339.798 12.6998 338.907 13.2869C338.027 13.8646 337.345 14.6222 336.862 15.5597C336.388 16.4877 336.152 17.4962 336.152 18.5852V21.071C336.152 22.5294 336.407 23.7699 336.919 24.7926C337.44 25.8153 338.164 26.5966 339.092 27.1364C340.02 27.6667 341.104 27.9318 342.345 27.9318C343.15 27.9318 343.884 27.8182 344.547 27.5909C345.209 27.3542 345.782 27.0038 346.265 26.5398C346.748 26.0758 347.118 25.5028 347.373 24.821L351.393 25.5455C351.071 26.7292 350.494 27.7661 349.66 28.6562C348.836 29.5369 347.799 30.2235 346.549 30.7159C345.309 31.1989 343.893 31.4403 342.302 31.4403ZM359.823 18.0455V31H355.575V9.18182H359.652V12.733H359.922C360.424 11.5777 361.21 10.6496 362.28 9.94886C363.36 9.24811 364.718 8.89773 366.357 8.89773C367.843 8.89773 369.145 9.21023 370.263 9.83523C371.38 10.4508 372.247 11.3693 372.862 12.5909C373.478 13.8125 373.786 15.3229 373.786 17.1222V31H369.538V17.6335C369.538 16.0521 369.127 14.8163 368.303 13.9261C367.479 13.0265 366.347 12.5767 364.908 12.5767C363.923 12.5767 363.047 12.7898 362.28 13.2159C361.522 13.642 360.921 14.267 360.476 15.0909C360.04 15.9053 359.823 16.8902 359.823 18.0455ZM388.866 9.18182V12.5909H376.949V9.18182H388.866ZM380.145 3.95455H384.392V24.5938C384.392 25.4176 384.515 26.0379 384.761 26.4545C385.007 26.8617 385.325 27.1411 385.713 27.2926C386.111 27.4347 386.542 27.5057 387.006 27.5057C387.346 27.5057 387.645 27.482 387.9 27.4347C388.156 27.3873 388.355 27.3494 388.497 27.321L389.264 30.8295C389.018 30.9242 388.667 31.0189 388.213 31.1136C387.758 31.2178 387.19 31.2746 386.508 31.2841C385.391 31.303 384.349 31.1042 383.383 30.6875C382.417 30.2708 381.636 29.6269 381.04 28.7557C380.443 27.8845 380.145 26.7907 380.145 25.4744V3.95455ZM407.281 31L400.86 9.18182H405.249L409.525 25.2045H409.738L414.028 9.18182H418.417L422.678 25.1335H422.891L427.138 9.18182H431.528L425.121 31H420.789L416.357 15.2472H416.031L411.599 31H407.281ZM434.758 31V9.18182H439.005V31H434.758ZM436.903 5.81534C436.165 5.81534 435.53 5.56913 435 5.0767C434.479 4.57481 434.218 3.97822 434.218 3.28693C434.218 2.58617 434.479 1.98958 435 1.49716C435.53 0.995264 436.165 0.744318 436.903 0.744318C437.642 0.744318 438.272 0.995264 438.792 1.49716C439.323 1.98958 439.588 2.58617 439.588 3.28693C439.588 3.97822 439.323 4.57481 438.792 5.0767C438.272 5.56913 437.642 5.81534 436.903 5.81534ZM454.104 9.18182V12.5909H442.186V9.18182H454.104ZM445.382 3.95455H449.629V24.5938C449.629 25.4176 449.753 26.0379 449.999 26.4545C450.245 26.8617 450.562 27.1411 450.95 27.2926C451.348 27.4347 451.779 27.5057 452.243 27.5057C452.584 27.5057 452.882 27.482 453.138 27.4347C453.394 27.3873 453.592 27.3494 453.735 27.321L454.502 30.8295C454.255 30.9242 453.905 31.0189 453.45 31.1136C452.996 31.2178 452.428 31.2746 451.746 31.2841C450.628 31.303 449.587 31.1042 448.621 30.6875C447.655 30.2708 446.874 29.6269 446.277 28.7557C445.681 27.8845 445.382 26.7907 445.382 25.4744V3.95455ZM462.718 18.0455V31H458.471V1.90909H462.661V12.733H462.931C463.442 11.5587 464.224 10.6259 465.275 9.93466C466.326 9.24337 467.699 8.89773 469.394 8.89773C470.89 8.89773 472.197 9.20549 473.314 9.82102C474.441 10.4366 475.313 11.3551 475.928 12.5767C476.553 13.7888 476.866 15.304 476.866 17.1222V31H472.618V17.6335C472.618 16.0331 472.207 14.7926 471.383 13.9119C470.559 13.0218 469.413 12.5767 467.945 12.5767C466.941 12.5767 466.042 12.7898 465.246 13.2159C464.46 13.642 463.84 14.267 463.386 15.0909C462.94 15.9053 462.718 16.8902 462.718 18.0455ZM339.824 84.4403C337.675 84.4403 335.823 83.9811 334.27 83.0625C332.727 82.1345 331.533 80.8324 330.691 79.1562C329.857 77.4706 329.441 75.4962 329.441 73.233C329.441 70.9981 329.857 69.0284 330.691 67.3239C331.533 65.6193 332.708 64.2888 334.213 63.3324C335.728 62.3759 337.499 61.8977 339.526 61.8977C340.757 61.8977 341.95 62.1013 343.105 62.5085C344.261 62.9157 345.298 63.5549 346.216 64.4261C347.135 65.2973 347.859 66.429 348.389 67.821C348.92 69.2036 349.185 70.8845 349.185 72.8636V74.3693H331.841V71.1875H345.023C345.023 70.0701 344.796 69.0805 344.341 68.2188C343.887 67.3475 343.247 66.661 342.424 66.1591C341.609 65.6572 340.653 65.4062 339.554 65.4062C338.361 65.4062 337.319 65.6998 336.429 66.2869C335.549 66.8646 334.867 67.6222 334.384 68.5597C333.91 69.4877 333.674 70.4962 333.674 71.5852V74.071C333.674 75.5294 333.929 76.7699 334.441 77.7926C334.961 78.8153 335.686 79.5966 336.614 80.1364C337.542 80.6667 338.626 80.9318 339.867 80.9318C340.672 80.9318 341.406 80.8182 342.068 80.5909C342.731 80.3542 343.304 80.0038 343.787 79.5398C344.27 79.0758 344.639 78.5028 344.895 77.821L348.915 78.5455C348.593 79.7292 348.015 80.7661 347.182 81.6562C346.358 82.5369 345.321 83.2235 344.071 83.7159C342.831 84.1989 341.415 84.4403 339.824 84.4403ZM355.942 62.1818L360.757 70.6761L365.615 62.1818H370.26L363.456 73.0909L370.317 84H365.672L360.757 75.8466L355.857 84H351.197L357.987 73.0909L351.283 62.1818H355.942ZM373.821 92.1818V62.1818H377.968V65.7188H378.324C378.57 65.2642 378.925 64.7386 379.389 64.142C379.853 63.5455 380.497 63.0246 381.321 62.5795C382.145 62.125 383.234 61.8977 384.588 61.8977C386.349 61.8977 387.921 62.3428 389.304 63.233C390.686 64.1231 391.771 65.4062 392.557 67.0824C393.352 68.7585 393.75 70.7756 393.75 73.1335C393.75 75.4915 393.357 77.5133 392.571 79.1989C391.785 80.875 390.705 82.1676 389.332 83.0767C387.959 83.9763 386.392 84.4261 384.63 84.4261C383.305 84.4261 382.22 84.2036 381.378 83.7585C380.544 83.3134 379.891 82.7926 379.417 82.196C378.944 81.5994 378.579 81.0691 378.324 80.6051H378.068V92.1818H373.821ZM377.983 73.0909C377.983 74.625 378.205 75.9697 378.65 77.125C379.095 78.2803 379.739 79.1847 380.582 79.8381C381.425 80.482 382.457 80.804 383.679 80.804C384.948 80.804 386.008 80.4678 386.861 79.7955C387.713 79.1136 388.357 78.1903 388.792 77.0256C389.237 75.8608 389.46 74.5492 389.46 73.0909C389.46 71.6515 389.242 70.3589 388.807 69.2131C388.38 68.0672 387.736 67.1629 386.875 66.5C386.022 65.8371 384.957 65.5057 383.679 65.5057C382.448 65.5057 381.406 65.8229 380.554 66.4574C379.711 67.0919 379.072 67.9773 378.636 69.1136C378.2 70.25 377.983 71.5758 377.983 73.0909ZM407.112 84.4403C404.962 84.4403 403.111 83.9811 401.558 83.0625C400.014 82.1345 398.821 80.8324 397.978 79.1562C397.145 77.4706 396.728 75.4962 396.728 73.233C396.728 70.9981 397.145 69.0284 397.978 67.3239C398.821 65.6193 399.995 64.2888 401.501 63.3324C403.016 62.3759 404.787 61.8977 406.813 61.8977C408.044 61.8977 409.238 62.1013 410.393 62.5085C411.548 62.9157 412.585 63.5549 413.504 64.4261C414.422 65.2973 415.147 66.429 415.677 67.821C416.207 69.2036 416.472 70.8845 416.472 72.8636V74.3693H399.129V71.1875H412.311C412.311 70.0701 412.083 69.0805 411.629 68.2188C411.174 67.3475 410.535 66.661 409.711 66.1591C408.897 65.6572 407.94 65.4062 406.842 65.4062C405.649 65.4062 404.607 65.6998 403.717 66.2869C402.836 66.8646 402.154 67.6222 401.671 68.5597C401.198 69.4877 400.961 70.4962 400.961 71.5852V74.071C400.961 75.5294 401.217 76.7699 401.728 77.7926C402.249 78.8153 402.973 79.5966 403.901 80.1364C404.829 80.6667 405.914 80.9318 407.154 80.9318C407.959 80.9318 408.693 80.8182 409.356 80.5909C410.019 80.3542 410.592 80.0038 411.075 79.5398C411.558 79.0758 411.927 78.5028 412.183 77.821L416.203 78.5455C415.881 79.7292 415.303 80.7661 414.47 81.6562C413.646 82.5369 412.609 83.2235 411.359 83.7159C410.118 84.1989 408.703 84.4403 407.112 84.4403ZM420.385 84V62.1818H424.49V65.6477H424.717C425.115 64.4735 425.816 63.5502 426.819 62.8778C427.833 62.196 428.979 61.8551 430.257 61.8551C430.522 61.8551 430.835 61.8646 431.194 61.8835C431.564 61.9025 431.853 61.9261 432.061 61.9545V66.017C431.89 65.9697 431.587 65.9176 431.152 65.8608C430.716 65.7945 430.281 65.7614 429.845 65.7614C428.841 65.7614 427.946 65.9744 427.16 66.4006C426.384 66.8172 425.768 67.3996 425.314 68.1477C424.859 68.8864 424.632 69.7292 424.632 70.6761V84H420.385ZM446.41 62.1818V65.5909H434.492V62.1818H446.41ZM437.688 56.9545H441.936V77.5938C441.936 78.4176 442.059 79.0379 442.305 79.4545C442.551 79.8617 442.868 80.1411 443.257 80.2926C443.654 80.4347 444.085 80.5057 444.549 80.5057C444.89 80.5057 445.188 80.482 445.444 80.4347C445.7 80.3873 445.899 80.3494 446.041 80.321L446.808 83.8295C446.562 83.9242 446.211 84.0189 445.757 84.1136C445.302 84.2178 444.734 84.2746 444.052 84.2841C442.935 84.303 441.893 84.1042 440.927 83.6875C439.961 83.2708 439.18 82.6269 438.583 81.7557C437.987 80.8845 437.688 79.7907 437.688 78.4744V56.9545ZM466.306 67.5085L462.457 68.1903C462.296 67.6979 462.04 67.2292 461.69 66.7841C461.349 66.339 460.885 65.9744 460.298 65.6903C459.71 65.4062 458.977 65.2642 458.096 65.2642C456.893 65.2642 455.889 65.5341 455.085 66.0739C454.28 66.6042 453.877 67.2907 453.877 68.1335C453.877 68.8627 454.147 69.4498 454.687 69.8949C455.227 70.34 456.098 70.7045 457.3 70.9886L460.766 71.7841C462.774 72.2481 464.27 72.9631 465.255 73.929C466.24 74.8949 466.732 76.1496 466.732 77.6932C466.732 79 466.353 80.1648 465.596 81.1875C464.848 82.2008 463.801 82.9962 462.457 83.5739C461.121 84.1515 459.573 84.4403 457.812 84.4403C455.369 84.4403 453.375 83.9195 451.832 82.8778C450.288 81.8267 449.341 80.3352 448.991 78.4034L453.096 77.7784C453.352 78.8485 453.877 79.6581 454.673 80.2074C455.468 80.7472 456.505 81.017 457.783 81.017C459.175 81.017 460.288 80.7282 461.121 80.1506C461.955 79.5634 462.371 78.8485 462.371 78.0057C462.371 77.3239 462.116 76.7509 461.604 76.2869C461.103 75.8229 460.331 75.4725 459.289 75.2358L455.596 74.4261C453.56 73.9621 452.054 73.2235 451.079 72.2102C450.113 71.197 449.63 69.9138 449.63 68.3608C449.63 67.0729 449.99 65.946 450.71 64.9801C451.429 64.0142 452.424 63.2614 453.692 62.7216C454.961 62.1723 456.415 61.8977 458.053 61.8977C460.411 61.8977 462.267 62.4091 463.621 63.4318C464.976 64.4451 465.871 65.804 466.306 67.5085Z" fill="black"/>
<path d="M5.10227 54.9091V84H0.855114V54.9091H5.10227ZM10.0161 84V62.1818H14.2632V84H10.0161ZM12.1609 58.8153C11.4223 58.8153 10.7878 58.5691 10.2575 58.0767C9.73669 57.5748 9.47628 56.9782 9.47628 56.2869C9.47628 55.5862 9.73669 54.9896 10.2575 54.4972C10.7878 53.9953 11.4223 53.7443 12.1609 53.7443C12.8996 53.7443 13.5293 53.9953 14.0501 54.4972C14.5804 54.9896 14.8456 55.5862 14.8456 56.2869C14.8456 56.9782 14.5804 57.5748 14.0501 58.0767C13.5293 58.5691 12.8996 58.8153 12.1609 58.8153ZM29.5605 62.1818V65.5909H17.231V62.1818H29.5605ZM20.6116 84V59.6534C20.6116 58.2898 20.9099 57.1581 21.5065 56.2585C22.1031 55.3494 22.8938 54.6723 23.8787 54.2273C24.8635 53.7727 25.9336 53.5455 27.0889 53.5455C27.9412 53.5455 28.6704 53.6165 29.2764 53.7585C29.8825 53.8911 30.3323 54.0142 30.6259 54.1278L29.6315 57.5653C29.4327 57.5085 29.177 57.4422 28.8645 57.3665C28.552 57.2812 28.1732 57.2386 27.7281 57.2386C26.6959 57.2386 25.9573 57.4943 25.5122 58.0057C25.0766 58.517 24.8588 59.2557 24.8588 60.2216V84H20.6116ZM41.6866 84.4403C39.537 84.4403 37.6857 83.9811 36.1327 83.0625C34.5891 82.1345 33.3959 80.8324 32.5531 79.1562C31.7198 77.4706 31.3031 75.4962 31.3031 73.233C31.3031 70.9981 31.7198 69.0284 32.5531 67.3239C33.3959 65.6193 34.5702 64.2888 36.0759 63.3324C37.591 62.3759 39.3618 61.8977 41.3884 61.8977C42.6194 61.8977 43.8126 62.1013 44.9679 62.5085C46.1232 62.9157 47.1601 63.5549 48.0787 64.4261C48.9973 65.2973 49.7217 66.429 50.252 67.821C50.7823 69.2036 51.0474 70.8845 51.0474 72.8636V74.3693H33.7037V71.1875H46.8855C46.8855 70.0701 46.6582 69.0805 46.2037 68.2188C45.7491 67.3475 45.1099 66.661 44.2861 66.1591C43.4717 65.6572 42.5152 65.4062 41.4168 65.4062C40.2236 65.4062 39.1819 65.6998 38.2918 66.2869C37.4111 66.8646 36.7293 67.6222 36.2463 68.5597C35.7728 69.4877 35.5361 70.4962 35.5361 71.5852V74.071C35.5361 75.5294 35.7918 76.7699 36.3031 77.7926C36.824 78.8153 37.5484 79.5966 38.4764 80.1364C39.4045 80.6667 40.4887 80.9318 41.7293 80.9318C42.5342 80.9318 43.2681 80.8182 43.931 80.5909C44.5938 80.3542 45.1668 80.0038 45.6497 79.5398C46.1327 79.0758 46.502 78.5028 46.7577 77.821L50.7776 78.5455C50.4556 79.7292 49.8779 80.7661 49.0446 81.6562C48.2207 82.5369 47.1838 83.2235 45.9338 83.7159C44.6933 84.1989 43.2776 84.4403 41.6866 84.4403ZM71.3092 67.5085L67.4598 68.1903C67.2988 67.6979 67.0431 67.2292 66.6928 66.7841C66.3518 66.339 65.8878 65.9744 65.3007 65.6903C64.7136 65.4062 63.9797 65.2642 63.099 65.2642C61.8964 65.2642 60.8926 65.5341 60.0876 66.0739C59.2827 66.6042 58.8803 67.2907 58.8803 68.1335C58.8803 68.8627 59.1501 69.4498 59.6899 69.8949C60.2297 70.34 61.1009 70.7045 62.3036 70.9886L65.7695 71.7841C67.777 72.2481 69.2732 72.9631 70.2581 73.929C71.2429 74.8949 71.7354 76.1496 71.7354 77.6932C71.7354 79 71.3566 80.1648 70.599 81.1875C69.8509 82.2008 68.8045 82.9962 67.4598 83.5739C66.1246 84.1515 64.5763 84.4403 62.8149 84.4403C60.3717 84.4403 58.3784 83.9195 56.8348 82.8778C55.2912 81.8267 54.3443 80.3352 53.9939 78.4034L58.099 77.7784C58.3547 78.8485 58.8803 79.6581 59.6757 80.2074C60.4712 80.7472 61.5081 81.017 62.7865 81.017C64.1786 81.017 65.2912 80.7282 66.1246 80.1506C66.9579 79.5634 67.3746 78.8485 67.3746 78.0057C67.3746 77.3239 67.1189 76.7509 66.6075 76.2869C66.1056 75.8229 65.3339 75.4725 64.2922 75.2358L60.599 74.4261C58.563 73.9621 57.0573 73.2235 56.082 72.2102C55.1161 71.197 54.6331 69.9138 54.6331 68.3608C54.6331 67.0729 54.9929 65.946 55.7126 64.9801C56.4323 64.0142 57.4267 63.2614 58.6956 62.7216C59.9645 62.1723 61.4181 61.8977 63.0564 61.8977C65.4143 61.8977 67.2704 62.4091 68.6246 63.4318C69.9787 64.4451 70.8736 65.804 71.3092 67.5085ZM85.7898 62.1818V65.5909H73.8722V62.1818H85.7898ZM77.0682 56.9545H81.3153V77.5938C81.3153 78.4176 81.4384 79.0379 81.6847 79.4545C81.9309 79.8617 82.2481 80.1411 82.6364 80.2926C83.0341 80.4347 83.465 80.5057 83.929 80.5057C84.2699 80.5057 84.5682 80.482 84.8239 80.4347C85.0795 80.3873 85.2784 80.3494 85.4205 80.321L86.1875 83.8295C85.9413 83.9242 85.5909 84.0189 85.1364 84.1136C84.6818 84.2178 84.1136 84.2746 83.4318 84.2841C82.3144 84.303 81.2727 84.1042 80.3068 83.6875C79.3409 83.2708 78.5597 82.6269 77.9631 81.7557C77.3665 80.8845 77.0682 79.7907 77.0682 78.4744V56.9545ZM92.3726 92.1818C91.7381 92.1818 91.1605 92.1297 90.6396 92.0256C90.1188 91.9309 89.7305 91.8267 89.4749 91.7131L90.4976 88.233C91.2741 88.4413 91.9654 88.5313 92.5714 88.5028C93.1775 88.4744 93.7125 88.2472 94.1766 87.821C94.65 87.3949 95.0667 86.6989 95.4266 85.733L95.9521 84.2841L87.9692 62.1818H92.5146L98.0402 79.1136H98.2675L103.793 62.1818H108.353L99.3612 86.9119C98.9446 88.0483 98.4142 89.0095 97.7703 89.7955C97.1264 90.5909 96.3593 91.1875 95.4692 91.5852C94.579 91.983 93.5468 92.1818 92.3726 92.1818ZM115.791 54.9091V84H111.544V54.9091H115.791ZM130.109 84.4403C127.959 84.4403 126.108 83.9811 124.555 83.0625C123.011 82.1345 121.818 80.8324 120.975 79.1562C120.142 77.4706 119.725 75.4962 119.725 73.233C119.725 70.9981 120.142 69.0284 120.975 67.3239C121.818 65.6193 122.992 64.2888 124.498 63.3324C126.013 62.3759 127.784 61.8977 129.81 61.8977C131.041 61.8977 132.234 62.1013 133.39 62.5085C134.545 62.9157 135.582 63.5549 136.501 64.4261C137.419 65.2973 138.144 66.429 138.674 67.821C139.204 69.2036 139.469 70.8845 139.469 72.8636V74.3693H122.126V71.1875H135.307C135.307 70.0701 135.08 69.0805 134.626 68.2188C134.171 67.3475 133.532 66.661 132.708 66.1591C131.894 65.6572 130.937 65.4062 129.839 65.4062C128.645 65.4062 127.604 65.6998 126.714 66.2869C125.833 66.8646 125.151 67.6222 124.668 68.5597C124.195 69.4877 123.958 70.4962 123.958 71.5852V74.071C123.958 75.5294 124.214 76.7699 124.725 77.7926C125.246 78.8153 125.97 79.5966 126.898 80.1364C127.826 80.6667 128.911 80.9318 130.151 80.9318C130.956 80.9318 131.69 80.8182 132.353 80.5909C133.016 80.3542 133.589 80.0038 134.072 79.5398C134.555 79.0758 134.924 78.5028 135.18 77.821L139.199 78.5455C138.877 79.7292 138.3 80.7661 137.466 81.6562C136.643 82.5369 135.606 83.2235 134.356 83.7159C133.115 84.1989 131.699 84.4403 130.109 84.4403ZM153.168 84V62.1818H157.244V65.733H157.514C157.969 64.5303 158.712 63.5928 159.744 62.9205C160.777 62.2386 162.012 61.8977 163.452 61.8977C164.91 61.8977 166.132 62.2386 167.116 62.9205C168.111 63.6023 168.845 64.5398 169.318 65.733H169.545C170.066 64.5682 170.895 63.6402 172.031 62.9489C173.168 62.2481 174.522 61.8977 176.094 61.8977C178.073 61.8977 179.688 62.518 180.938 63.7585C182.197 64.9991 182.827 66.8693 182.827 69.3693V84H178.58V69.767C178.58 68.2898 178.177 67.2197 177.372 66.5568C176.567 65.8939 175.606 65.5625 174.489 65.5625C173.106 65.5625 172.031 65.9886 171.264 66.8409C170.497 67.6837 170.114 68.768 170.114 70.0938V84H165.881V69.4972C165.881 68.3134 165.511 67.3617 164.773 66.642C164.034 65.9223 163.073 65.5625 161.889 65.5625C161.084 65.5625 160.341 65.7756 159.659 66.2017C158.987 66.6184 158.442 67.2008 158.026 67.9489C157.618 68.697 157.415 69.5634 157.415 70.5483V84H153.168ZM197.123 84.4403C194.973 84.4403 193.122 83.9811 191.569 83.0625C190.025 82.1345 188.832 80.8324 187.989 79.1562C187.156 77.4706 186.739 75.4962 186.739 73.233C186.739 70.9981 187.156 69.0284 187.989 67.3239C188.832 65.6193 190.006 64.2888 191.512 63.3324C193.027 62.3759 194.798 61.8977 196.824 61.8977C198.055 61.8977 199.249 62.1013 200.404 62.5085C201.559 62.9157 202.596 63.5549 203.515 64.4261C204.433 65.2973 205.158 66.429 205.688 67.821C206.218 69.2036 206.483 70.8845 206.483 72.8636V74.3693H189.14V71.1875H202.321C202.321 70.0701 202.094 69.0805 201.64 68.2188C201.185 67.3475 200.546 66.661 199.722 66.1591C198.908 65.6572 197.951 65.4062 196.853 65.4062C195.66 65.4062 194.618 65.6998 193.728 66.2869C192.847 66.8646 192.165 67.6222 191.682 68.5597C191.209 69.4877 190.972 70.4962 190.972 71.5852V74.071C190.972 75.5294 191.228 76.7699 191.739 77.7926C192.26 78.8153 192.984 79.5966 193.912 80.1364C194.84 80.6667 195.925 80.9318 197.165 80.9318C197.97 80.9318 198.704 80.8182 199.367 80.5909C200.03 80.3542 200.603 80.0038 201.086 79.5398C201.569 79.0758 201.938 78.5028 202.194 77.821L206.213 78.5455C205.892 79.7292 205.314 80.7661 204.481 81.6562C203.657 82.5369 202.62 83.2235 201.37 83.7159C200.129 84.1989 198.713 84.4403 197.123 84.4403ZM218.563 84.4261C216.802 84.4261 215.23 83.9763 213.847 83.0767C212.474 82.1676 211.395 80.875 210.609 79.1989C209.832 77.5133 209.444 75.4915 209.444 73.1335C209.444 70.7756 209.837 68.7585 210.623 67.0824C211.418 65.4062 212.507 64.1231 213.89 63.233C215.273 62.3428 216.84 61.8977 218.592 61.8977C219.946 61.8977 221.035 62.125 221.859 62.5795C222.692 63.0246 223.336 63.5455 223.791 64.142C224.255 64.7386 224.614 65.2642 224.87 65.7188H225.126V54.9091H229.373V84H225.225V80.6051H224.87C224.614 81.0691 224.245 81.5994 223.762 82.196C223.289 82.7926 222.635 83.3134 221.802 83.7585C220.969 84.2036 219.889 84.4261 218.563 84.4261ZM219.501 80.804C220.722 80.804 221.755 80.482 222.597 79.8381C223.45 79.1847 224.094 78.2803 224.529 77.125C224.974 75.9697 225.197 74.625 225.197 73.0909C225.197 71.5758 224.979 70.25 224.543 69.1136C224.108 67.9773 223.469 67.0919 222.626 66.4574C221.783 65.8229 220.741 65.5057 219.501 65.5057C218.222 65.5057 217.157 65.8371 216.305 66.5C215.453 67.1629 214.809 68.0672 214.373 69.2131C213.947 70.3589 213.734 71.6515 213.734 73.0909C213.734 74.5492 213.952 75.8608 214.387 77.0256C214.823 78.1903 215.467 79.1136 216.319 79.7955C217.181 80.4678 218.241 80.804 219.501 80.804ZM234.635 84V62.1818H238.882V84H234.635ZM236.78 58.8153C236.041 58.8153 235.407 58.5691 234.876 58.0767C234.355 57.5748 234.095 56.9782 234.095 56.2869C234.095 55.5862 234.355 54.9896 234.876 54.4972C235.407 53.9953 236.041 53.7443 236.78 53.7443C237.518 53.7443 238.148 53.9953 238.669 54.4972C239.199 54.9896 239.464 55.5862 239.464 56.2869C239.464 56.9782 239.199 57.5748 238.669 58.0767C238.148 58.5691 237.518 58.8153 236.78 58.8153ZM252.986 84.4403C250.874 84.4403 249.056 83.9621 247.532 83.0057C246.016 82.0398 244.852 80.7093 244.037 79.0142C243.223 77.3191 242.816 75.3778 242.816 73.1903C242.816 70.9744 243.232 69.0189 244.066 67.3239C244.899 65.6193 246.073 64.2888 247.588 63.3324C249.104 62.3759 250.889 61.8977 252.943 61.8977C254.601 61.8977 256.078 62.2055 257.375 62.821C258.673 63.4271 259.719 64.2794 260.514 65.3778C261.319 66.4763 261.798 67.7595 261.949 69.2273H257.816C257.588 68.2045 257.068 67.3239 256.253 66.5852C255.448 65.8466 254.369 65.4773 253.014 65.4773C251.831 65.4773 250.794 65.7898 249.904 66.4148C249.023 67.0303 248.336 67.911 247.844 69.0568C247.352 70.1932 247.105 71.5379 247.105 73.0909C247.105 74.6818 247.347 76.0549 247.83 77.2102C248.313 78.3655 248.995 79.2604 249.875 79.8949C250.765 80.5294 251.812 80.8466 253.014 80.8466C253.819 80.8466 254.549 80.6998 255.202 80.4062C255.865 80.1032 256.419 79.6723 256.864 79.1136C257.318 78.5549 257.636 77.8826 257.816 77.0966H261.949C261.798 78.5076 261.338 79.767 260.571 80.875C259.804 81.983 258.777 82.8542 257.489 83.4886C256.211 84.1231 254.71 84.4403 252.986 84.4403ZM265.691 84V62.1818H269.938V84H265.691ZM267.836 58.8153C267.097 58.8153 266.463 58.5691 265.933 58.0767C265.412 57.5748 265.151 56.9782 265.151 56.2869C265.151 55.5862 265.412 54.9896 265.933 54.4972C266.463 53.9953 267.097 53.7443 267.836 53.7443C268.575 53.7443 269.204 53.9953 269.725 54.4972C270.255 54.9896 270.521 55.5862 270.521 56.2869C270.521 56.9782 270.255 57.5748 269.725 58.0767C269.204 58.5691 268.575 58.8153 267.836 58.8153ZM279.099 71.0455V84H274.852V62.1818H278.929V65.733H279.199C279.7 64.5777 280.486 63.6496 281.557 62.9489C282.636 62.2481 283.995 61.8977 285.633 61.8977C287.12 61.8977 288.422 62.2102 289.54 62.8352C290.657 63.4508 291.523 64.3693 292.139 65.5909C292.754 66.8125 293.062 68.3229 293.062 70.1222V84H288.815V70.6335C288.815 69.0521 288.403 67.8163 287.579 66.9261C286.755 66.0265 285.624 65.5767 284.184 65.5767C283.2 65.5767 282.324 65.7898 281.557 66.2159C280.799 66.642 280.198 67.267 279.753 68.0909C279.317 68.9053 279.099 69.8902 279.099 71.0455ZM307.362 84.4403C305.212 84.4403 303.361 83.9811 301.808 83.0625C300.264 82.1345 299.071 80.8324 298.228 79.1562C297.395 77.4706 296.978 75.4962 296.978 73.233C296.978 70.9981 297.395 69.0284 298.228 67.3239C299.071 65.6193 300.245 64.2888 301.751 63.3324C303.266 62.3759 305.037 61.8977 307.063 61.8977C308.294 61.8977 309.488 62.1013 310.643 62.5085C311.798 62.9157 312.835 63.5549 313.754 64.4261C314.672 65.2973 315.397 66.429 315.927 67.821C316.457 69.2036 316.722 70.8845 316.722 72.8636V74.3693H299.379V71.1875H312.561C312.561 70.0701 312.333 69.0805 311.879 68.2188C311.424 67.3475 310.785 66.661 309.961 66.1591C309.147 65.6572 308.19 65.4062 307.092 65.4062C305.899 65.4062 304.857 65.6998 303.967 66.2869C303.086 66.8646 302.404 67.6222 301.921 68.5597C301.448 69.4877 301.211 70.4962 301.211 71.5852V74.071C301.211 75.5294 301.467 76.7699 301.978 77.7926C302.499 78.8153 303.223 79.5966 304.151 80.1364C305.079 80.6667 306.164 80.9318 307.404 80.9318C308.209 80.9318 308.943 80.8182 309.606 80.5909C310.269 80.3542 310.842 80.0038 311.325 79.5398C311.808 79.0758 312.177 78.5028 312.433 77.821L316.453 78.5455C316.131 79.7292 315.553 80.7661 314.72 81.6562C313.896 82.5369 312.859 83.2235 311.609 83.7159C310.368 84.1989 308.953 84.4403 307.362 84.4403Z" fill="url(#paint0_linear_2_9)"/>
<defs>
<linearGradient id="paint0_linear_2_9" x1="-226.763" y1="19.8245" x2="365.969" y2="217.257" gradientUnits="userSpaceOnUse">
<stop stop-color="#1173B3"/>
<stop offset="1" stop-color="#0CB9B3"/>
</linearGradient>
</defs>
</svg>
