<svg width="133" height="13" viewBox="0 0 133 13" fill="none" xmlns="http://www.w3.org/2000/svg">
<path d="M0.278409 12V0.363636H2.03409V5.42045H7.83523V0.363636H9.59659V12H7.83523V6.92614H2.03409V12H0.278409ZM23.4614 6.18182C23.4614 7.42424 23.2341 8.49242 22.7795 9.38636C22.325 10.2765 21.7019 10.9621 20.9102 11.4432C20.1223 11.9205 19.2265 12.1591 18.2227 12.1591C17.2152 12.1591 16.3155 11.9205 15.5239 11.4432C14.736 10.9621 14.1148 10.2746 13.6602 9.38068C13.2057 8.48674 12.9784 7.42045 12.9784 6.18182C12.9784 4.93939 13.2057 3.87311 13.6602 2.98295C14.1148 2.08901 14.736 1.40341 15.5239 0.926136C16.3155 0.445075 17.2152 0.204545 18.2227 0.204545C19.2265 0.204545 20.1223 0.445075 20.9102 0.926136C21.7019 1.40341 22.325 2.08901 22.7795 2.98295C23.2341 3.87311 23.4614 4.93939 23.4614 6.18182ZM21.7227 6.18182C21.7227 5.23485 21.5693 4.4375 21.2625 3.78977C20.9595 3.13826 20.5428 2.64583 20.0125 2.3125C19.486 1.97538 18.8894 1.80682 18.2227 1.80682C17.5523 1.80682 16.9538 1.97538 16.4273 2.3125C15.9008 2.64583 15.4841 3.13826 15.1773 3.78977C14.8742 4.4375 14.7227 5.23485 14.7227 6.18182C14.7227 7.12879 14.8742 7.92803 15.1773 8.57955C15.4841 9.22727 15.9008 9.7197 16.4273 10.0568C16.9538 10.3902 17.5523 10.5568 18.2227 10.5568C18.8894 10.5568 19.486 10.3902 20.0125 10.0568C20.5428 9.7197 20.9595 9.22727 21.2625 8.57955C21.5693 7.92803 21.7227 7.12879 21.7227 6.18182ZM28.9881 12L25.7608 0.363636H27.6074L29.8744 9.375H29.9824L32.3403 0.363636H34.1699L36.5278 9.38068H36.6358L38.8972 0.363636H40.7494L37.5165 12H35.7494L33.3006 3.28409H33.2097L30.7608 12H28.9881ZM50.7403 0.363636V12H48.9847V0.363636H50.7403ZM53.9233 1.875V0.363636H62.929V1.875H59.2983V12H57.5483V1.875H53.9233ZM73.8318 12L70.6045 0.363636H72.4511L74.7182 9.375H74.8261L77.1841 0.363636H79.0136L81.3716 9.38068H81.4795L83.7409 0.363636H85.5932L82.3602 12H80.5932L78.1443 3.28409H78.0534L75.6045 12H73.8318ZM97.9239 6.18182C97.9239 7.42424 97.6966 8.49242 97.242 9.38636C96.7875 10.2765 96.1644 10.9621 95.3727 11.4432C94.5848 11.9205 93.689 12.1591 92.6852 12.1591C91.6777 12.1591 90.778 11.9205 89.9864 11.4432C89.1985 10.9621 88.5773 10.2746 88.1227 9.38068C87.6682 8.48674 87.4409 7.42045 87.4409 6.18182C87.4409 4.93939 87.6682 3.87311 88.1227 2.98295C88.5773 2.08901 89.1985 1.40341 89.9864 0.926136C90.778 0.445075 91.6777 0.204545 92.6852 0.204545C93.689 0.204545 94.5848 0.445075 95.3727 0.926136C96.1644 1.40341 96.7875 2.08901 97.242 2.98295C97.6966 3.87311 97.9239 4.93939 97.9239 6.18182ZM96.1852 6.18182C96.1852 5.23485 96.0318 4.4375 95.725 3.78977C95.422 3.13826 95.0053 2.64583 94.475 2.3125C93.9485 1.97538 93.3519 1.80682 92.6852 1.80682C92.0148 1.80682 91.4163 1.97538 90.8898 2.3125C90.3633 2.64583 89.9466 3.13826 89.6398 3.78977C89.3367 4.4375 89.1852 5.23485 89.1852 6.18182C89.1852 7.12879 89.3367 7.92803 89.6398 8.57955C89.9466 9.22727 90.3633 9.7197 90.8898 10.0568C91.4163 10.3902 92.0148 10.5568 92.6852 10.5568C93.3519 10.5568 93.9485 10.3902 94.475 10.0568C95.0053 9.7197 95.422 9.22727 95.725 8.57955C96.0318 7.92803 96.1852 7.12879 96.1852 6.18182ZM101.313 12V0.363636H105.461C106.362 0.363636 107.11 0.518939 107.705 0.829545C108.303 1.14015 108.75 1.57008 109.046 2.11932C109.341 2.66477 109.489 3.29545 109.489 4.01136C109.489 4.72348 109.339 5.35038 109.04 5.89205C108.745 6.42992 108.298 6.84848 107.699 7.14773C107.104 7.44697 106.356 7.59659 105.455 7.59659H102.313V6.08523H105.296C105.864 6.08523 106.326 6.00379 106.682 5.84091C107.042 5.67803 107.305 5.44129 107.472 5.13068C107.639 4.82008 107.722 4.44697 107.722 4.01136C107.722 3.57197 107.637 3.19129 107.466 2.86932C107.3 2.54735 107.036 2.30114 106.676 2.13068C106.32 1.95644 105.853 1.86932 105.273 1.86932H103.068V12H101.313ZM107.057 6.75L109.932 12H107.932L105.114 6.75H107.057ZM112.825 12V0.363636H114.581V5.92045H114.723L119.604 0.363636H121.814L117.121 5.60227L121.831 12H119.717L115.956 6.80114L114.581 8.38068V12H112.825ZM130.966 3.42045C130.905 2.88258 130.655 2.46591 130.216 2.17045C129.776 1.87121 129.223 1.72159 128.557 1.72159C128.079 1.72159 127.666 1.79735 127.318 1.94886C126.969 2.09659 126.699 2.30114 126.505 2.5625C126.316 2.82008 126.221 3.11364 126.221 3.44318C126.221 3.7197 126.286 3.95833 126.414 4.15909C126.547 4.35985 126.719 4.52841 126.932 4.66477C127.147 4.79735 127.379 4.90909 127.625 5C127.871 5.08712 128.108 5.15909 128.335 5.21591L129.471 5.51136C129.843 5.60227 130.223 5.72538 130.613 5.88068C131.004 6.03598 131.365 6.24053 131.699 6.49432C132.032 6.74811 132.301 7.0625 132.505 7.4375C132.714 7.8125 132.818 8.26136 132.818 8.78409C132.818 9.44318 132.647 10.0284 132.307 10.5398C131.969 11.0511 131.479 11.4545 130.835 11.75C130.195 12.0455 129.42 12.1932 128.511 12.1932C127.64 12.1932 126.886 12.0549 126.25 11.7784C125.613 11.5019 125.115 11.1098 124.755 10.6023C124.396 10.0909 124.197 9.48485 124.159 8.78409H125.92C125.954 9.20455 126.091 9.55492 126.329 9.83523C126.572 10.1117 126.88 10.3182 127.255 10.4545C127.634 10.5871 128.049 10.6534 128.5 10.6534C128.996 10.6534 129.437 10.5758 129.824 10.4205C130.214 10.2614 130.521 10.0417 130.744 9.76136C130.968 9.47727 131.079 9.14583 131.079 8.76705C131.079 8.42235 130.981 8.14015 130.784 7.92045C130.591 7.70076 130.327 7.51894 129.994 7.375C129.664 7.23106 129.291 7.10417 128.875 6.99432L127.5 6.61932C126.568 6.36553 125.829 5.99242 125.284 5.5C124.742 5.00758 124.471 4.35606 124.471 3.54545C124.471 2.875 124.653 2.28977 125.017 1.78977C125.38 1.28977 125.873 0.901515 126.494 0.625C127.115 0.344697 127.816 0.204545 128.596 0.204545C129.384 0.204545 130.079 0.342803 130.682 0.619318C131.288 0.895833 131.765 1.27652 132.113 1.76136C132.462 2.24242 132.644 2.79545 132.659 3.42045H130.966Z" fill="#707070"/>
</svg>
