<svg width="480" height="28" viewBox="0 0 480 28" fill="none" xmlns="http://www.w3.org/2000/svg">
<path d="M0.735795 22L4.11648 1.63636H7.8054L4.94176 18.9077H13.9105L13.3935 22H0.735795ZM16.4361 22L18.9815 6.72727H22.581L20.0355 22H16.4361ZM21.3082 4.53977C20.7315 4.53977 20.2543 4.34754 19.8764 3.96307C19.4986 3.5786 19.3329 3.1179 19.3793 2.58097C19.4257 2.04403 19.6676 1.58333 20.1051 1.19886C20.5492 0.814394 21.0563 0.622159 21.6264 0.622159C22.2031 0.622159 22.6771 0.814394 23.0483 1.19886C23.4261 1.58333 23.5919 2.04403 23.5455 2.58097C23.5057 3.1179 23.2637 3.5786 22.8196 3.96307C22.3821 4.34754 21.8783 4.53977 21.3082 4.53977ZM34.0281 6.72727L33.5607 9.51136H24.5323L24.9996 6.72727H34.0281ZM24.7013 22L27.4954 5.28551C27.6545 4.25805 28.0025 3.40293 28.5394 2.72017C29.083 2.0374 29.7425 1.52699 30.5181 1.18892C31.3003 0.850851 32.1322 0.681817 33.0138 0.681817C33.6436 0.681817 34.1905 0.731533 34.6545 0.830966C35.1185 0.930397 35.4566 1.01989 35.6687 1.09943L34.5053 3.88352C34.3529 3.83712 34.1673 3.79072 33.9485 3.74432C33.7364 3.69129 33.4878 3.66477 33.2028 3.66477C32.5333 3.66477 32.0328 3.82718 31.7013 4.15199C31.3699 4.47017 31.1512 4.92756 31.0451 5.52415L28.3107 22H24.7013ZM40.4663 22.2983C38.935 22.2983 37.6689 21.9801 36.668 21.3438C35.667 20.7008 34.9644 19.7926 34.56 18.6193C34.1623 17.4394 34.096 16.0507 34.3612 14.4531C34.6197 12.8821 35.1467 11.5033 35.9421 10.3168C36.7376 9.12358 37.7319 8.19555 38.9251 7.53267C40.1249 6.86316 41.4506 6.52841 42.9023 6.52841C43.8436 6.52841 44.7087 6.68087 45.4975 6.98579C46.2863 7.28409 46.9525 7.74811 47.4961 8.37784C48.0397 9.00758 48.4142 9.80966 48.6197 10.7841C48.8252 11.7519 48.8152 12.9053 48.5898 14.2443L48.4208 15.348H35.8924L36.2802 12.9219H45.3484C45.4677 12.2325 45.4279 11.6193 45.229 11.0824C45.0302 10.5388 44.6987 10.1113 44.2347 9.79972C43.7707 9.48816 43.1907 9.33239 42.4947 9.33239C41.7854 9.33239 41.1225 9.51468 40.506 9.87926C39.8962 10.2372 39.3825 10.7012 38.9648 11.2713C38.5472 11.8414 38.2821 12.4413 38.1694 13.071L37.7617 15.3977C37.6159 16.3523 37.649 17.1312 37.8612 17.7344C38.0733 18.3376 38.4445 18.7817 38.9748 19.0668C39.5051 19.3518 40.1746 19.4943 40.9833 19.4943C41.5136 19.4943 42.0041 19.4214 42.4549 19.2756C42.9057 19.1297 43.3067 18.911 43.658 18.6193C44.016 18.321 44.3143 17.9564 44.5529 17.5256L47.8441 17.9034C47.4795 18.7917 46.9459 19.5672 46.2433 20.2301C45.5406 20.8864 44.6987 21.3968 43.7177 21.7614C42.7433 22.1193 41.6594 22.2983 40.4663 22.2983ZM64.3001 10.7642L60.989 11.1222C60.9558 10.7841 60.8531 10.4692 60.6808 10.1776C60.5084 9.88589 60.2499 9.65388 59.9052 9.48153C59.5671 9.30256 59.1296 9.21307 58.5927 9.21307C57.8105 9.21307 57.1244 9.38873 56.5344 9.74006C55.9445 10.0914 55.6097 10.5421 55.5302 11.0923C55.4573 11.5033 55.5567 11.8381 55.8285 12.0966C56.1003 12.3551 56.604 12.5739 57.3398 12.7528L59.8654 13.3097C61.2575 13.6212 62.2584 14.125 62.8683 14.821C63.4847 15.517 63.7002 16.4285 63.5146 17.5554C63.3555 18.4967 62.9445 19.3253 62.2816 20.0412C61.6187 20.7505 60.7702 21.304 59.7362 21.7017C58.7087 22.0994 57.5685 22.2983 56.3157 22.2983C54.4132 22.2983 52.9483 21.9039 51.9208 21.1151C50.9 20.3196 50.3929 19.2259 50.3995 17.8338L53.9393 17.4957C53.979 18.1851 54.221 18.7055 54.6651 19.0568C55.1093 19.4015 55.7257 19.5772 56.5146 19.5838C57.4028 19.5904 58.1519 19.4048 58.7617 19.027C59.3782 18.6425 59.7262 18.1752 59.8058 17.625C59.872 17.214 59.7693 16.8793 59.4975 16.6207C59.2324 16.3622 58.7584 16.1567 58.0756 16.0043L55.57 15.4574C54.1514 15.1458 53.1405 14.6188 52.5373 13.8764C51.9407 13.1274 51.7385 12.1828 51.9308 11.0426C52.0898 10.1146 52.4776 9.31581 53.0941 8.64631C53.7172 7.97017 54.516 7.44981 55.4904 7.08523C56.4648 6.71401 57.5553 6.52841 58.7617 6.52841C60.578 6.52841 61.9469 6.90956 62.8683 7.67188C63.7897 8.43419 64.2669 9.46496 64.3001 10.7642ZM75.9087 6.72727L75.4414 9.51136H66.6715L67.1289 6.72727H75.9087ZM69.8931 3.06818H73.4925L71.1062 17.4062C71.0333 17.8902 71.0465 18.2614 71.146 18.5199C71.252 18.7718 71.421 18.9441 71.6531 19.0369C71.8917 19.1297 72.1602 19.1761 72.4585 19.1761C72.6772 19.1761 72.8827 19.1596 73.0749 19.1264C73.2672 19.0866 73.4196 19.0568 73.5323 19.0369L73.6914 21.8509C73.4727 21.9171 73.1777 21.9901 72.8065 22.0696C72.4419 22.1491 72.0044 22.1955 71.494 22.2088C70.5792 22.2287 69.7837 22.0895 69.1076 21.7912C68.4381 21.4863 67.9476 21.0189 67.636 20.3892C67.3311 19.7528 67.2615 18.9574 67.4272 18.0028L69.8931 3.06818ZM77.6761 27.7273C77.1856 27.7273 76.7382 27.6875 76.3338 27.608C75.9361 27.535 75.6212 27.4489 75.3892 27.3494L76.7017 24.5455C77.1989 24.6979 77.6463 24.7642 78.044 24.7443C78.4484 24.7311 78.8196 24.5952 79.1577 24.3366C79.5024 24.0848 79.8404 23.6705 80.1719 23.0938L80.6293 22.2685L77.706 6.72727H81.3849L82.9759 18.2812H83.1349L88.5938 6.72727H92.5611L83.6222 23.8295C83.1913 24.6581 82.6908 25.3608 82.1207 25.9375C81.5507 26.5208 80.8977 26.965 80.1619 27.2699C79.4328 27.5748 78.6042 27.7273 77.6761 27.7273ZM99.4865 1.63636L96.1058 22H92.5064L95.8871 1.63636H99.4865ZM106.529 22.2983C104.998 22.2983 103.731 21.9801 102.73 21.3438C101.73 20.7008 101.027 19.7926 100.623 18.6193C100.225 17.4394 100.158 16.0507 100.424 14.4531C100.682 12.8821 101.209 11.5033 102.005 10.3168C102.8 9.12358 103.794 8.19555 104.988 7.53267C106.187 6.86316 107.513 6.52841 108.965 6.52841C109.906 6.52841 110.771 6.68087 111.56 6.98579C112.349 7.28409 113.015 7.74811 113.559 8.37784C114.102 9.00758 114.477 9.80966 114.682 10.7841C114.888 11.7519 114.878 12.9053 114.652 14.2443L114.483 15.348H101.955L102.343 12.9219H111.411C111.53 12.2325 111.49 11.6193 111.292 11.0824C111.093 10.5388 110.761 10.1113 110.297 9.79972C109.833 9.48816 109.253 9.33239 108.557 9.33239C107.848 9.33239 107.185 9.51468 106.569 9.87926C105.959 10.2372 105.445 10.7012 105.027 11.2713C104.61 11.8414 104.345 12.4413 104.232 13.071L103.824 15.3977C103.678 16.3523 103.712 17.1312 103.924 17.7344C104.136 18.3376 104.507 18.7817 105.037 19.0668C105.568 19.3518 106.237 19.4943 107.046 19.4943C107.576 19.4943 108.067 19.4214 108.517 19.2756C108.968 19.1297 109.369 18.911 109.721 18.6193C110.078 18.321 110.377 17.9564 110.615 17.5256L113.907 17.9034C113.542 18.7917 113.008 19.5672 112.306 20.2301C111.603 20.8864 110.761 21.3968 109.78 21.7614C108.806 22.1193 107.722 22.2983 106.529 22.2983ZM127.733 22.3082C126.765 22.3082 125.923 22.1359 125.207 21.7912C124.491 21.4399 123.964 20.9228 123.626 20.2401C123.295 19.5573 123.212 18.7154 123.377 17.7145C123.523 16.8527 123.802 16.1402 124.213 15.5767C124.63 15.0133 125.141 14.5625 125.744 14.2244C126.354 13.8797 127.017 13.6212 127.733 13.4489C128.455 13.2765 129.191 13.1506 129.94 13.071C130.855 12.9782 131.594 12.892 132.157 12.8125C132.727 12.733 133.155 12.6136 133.44 12.4545C133.725 12.2888 133.897 12.0369 133.957 11.6989V11.6392C134.076 10.8902 133.957 10.3101 133.599 9.89915C133.241 9.48816 132.645 9.28267 131.809 9.28267C130.934 9.28267 130.199 9.47491 129.602 9.85938C129.005 10.2438 128.571 10.6979 128.299 11.2216L125.038 10.7443C125.449 9.81629 126.012 9.04072 126.728 8.41761C127.444 7.78788 128.27 7.31723 129.204 7.00568C130.145 6.6875 131.15 6.52841 132.217 6.52841C132.946 6.52841 133.659 6.61458 134.355 6.78693C135.057 6.95928 135.677 7.24432 136.214 7.64204C136.758 8.03314 137.155 8.56676 137.407 9.2429C137.666 9.91903 137.709 10.7642 137.537 11.7784L135.836 22H132.376L132.734 19.902H132.615C132.33 20.3262 131.958 20.724 131.501 21.0952C131.044 21.4598 130.5 21.7547 129.87 21.9801C129.241 22.1989 128.528 22.3082 127.733 22.3082ZM129.095 19.6634C129.817 19.6634 130.467 19.5208 131.044 19.2358C131.62 18.9441 132.094 18.5597 132.466 18.0824C132.837 17.6051 133.069 17.0848 133.162 16.5213L133.46 14.7216C133.327 14.8144 133.122 14.9006 132.843 14.9801C132.565 15.0597 132.253 15.1293 131.909 15.1889C131.571 15.2486 131.236 15.3016 130.904 15.348C130.573 15.3944 130.288 15.4342 130.049 15.4673C129.499 15.5402 128.995 15.6596 128.538 15.8253C128.087 15.991 127.713 16.223 127.414 16.5213C127.123 16.813 126.94 17.1908 126.868 17.6548C126.761 18.3111 126.917 18.8116 127.335 19.1562C127.752 19.4943 128.339 19.6634 129.095 19.6634ZM153.386 10.7642L150.075 11.1222C150.042 10.7841 149.939 10.4692 149.767 10.1776C149.594 9.88589 149.336 9.65388 148.991 9.48153C148.653 9.30256 148.216 9.21307 147.679 9.21307C146.896 9.21307 146.21 9.38873 145.62 9.74006C145.03 10.0914 144.696 10.5421 144.616 11.0923C144.543 11.5033 144.643 11.8381 144.914 12.0966C145.186 12.3551 145.69 12.5739 146.426 12.7528L148.951 13.3097C150.343 13.6212 151.344 14.125 151.954 14.821C152.571 15.517 152.786 16.4285 152.6 17.5554C152.441 18.4967 152.03 19.3253 151.368 20.0412C150.705 20.7505 149.856 21.304 148.822 21.7017C147.795 22.0994 146.654 22.2983 145.402 22.2983C143.499 22.2983 142.034 21.9039 141.007 21.1151C139.986 20.3196 139.479 19.2259 139.485 17.8338L143.025 17.4957C143.065 18.1851 143.307 18.7055 143.751 19.0568C144.195 19.4015 144.812 19.5772 145.6 19.5838C146.489 19.5904 147.238 19.4048 147.848 19.027C148.464 18.6425 148.812 18.1752 148.892 17.625C148.958 17.214 148.855 16.8793 148.583 16.6207C148.318 16.3622 147.844 16.1567 147.162 16.0043L144.656 15.4574C143.237 15.1458 142.226 14.6188 141.623 13.8764C141.027 13.1274 140.824 12.1828 141.017 11.0426C141.176 10.1146 141.564 9.31581 142.18 8.64631C142.803 7.97017 143.602 7.44981 144.576 7.08523C145.551 6.71401 146.641 6.52841 147.848 6.52841C149.664 6.52841 151.033 6.90956 151.954 7.67188C152.876 8.43419 153.353 9.46496 153.386 10.7642ZM161.778 22L164.324 6.72727H167.774L167.336 9.32244H167.525C167.989 8.44744 168.629 7.76468 169.444 7.27415C170.26 6.77699 171.178 6.52841 172.199 6.52841C173.226 6.52841 174.055 6.7803 174.684 7.28409C175.321 7.78125 175.712 8.4607 175.858 9.32244H176.017C176.494 8.46733 177.177 7.78788 178.065 7.28409C178.96 6.7803 179.964 6.52841 181.078 6.52841C182.47 6.52841 183.537 6.97254 184.279 7.86079C185.022 8.74905 185.251 10.045 184.966 11.7486L183.255 22H179.656L181.287 12.3054C181.432 11.3575 181.287 10.6648 180.849 10.2273C180.418 9.78314 179.838 9.56108 179.109 9.56108C178.241 9.56108 177.518 9.82954 176.941 10.3665C176.371 10.9034 176.02 11.6061 175.887 12.4744L174.287 22H170.757L172.407 12.1562C172.527 11.3674 172.387 10.7377 171.99 10.267C171.599 9.7964 171.022 9.56108 170.26 9.56108C169.743 9.56108 169.249 9.69365 168.778 9.95881C168.307 10.224 167.906 10.5952 167.575 11.0724C167.25 11.5431 167.038 12.09 166.939 12.7131L165.387 22H161.778ZM193.619 22.2983C192.087 22.2983 190.821 21.9801 189.82 21.3438C188.819 20.7008 188.117 19.7926 187.712 18.6193C187.315 17.4394 187.248 16.0507 187.513 14.4531C187.772 12.8821 188.299 11.5033 189.094 10.3168C189.89 9.12358 190.884 8.19555 192.077 7.53267C193.277 6.86316 194.603 6.52841 196.055 6.52841C196.996 6.52841 197.861 6.68087 198.65 6.98579C199.439 7.28409 200.105 7.74811 200.648 8.37784C201.192 9.00758 201.567 9.80966 201.772 10.7841C201.978 11.7519 201.968 12.9053 201.742 14.2443L201.573 15.348H189.045L189.433 12.9219H198.501C198.62 12.2325 198.58 11.6193 198.381 11.0824C198.183 10.5388 197.851 10.1113 197.387 9.79972C196.923 9.48816 196.343 9.33239 195.647 9.33239C194.938 9.33239 194.275 9.51468 193.658 9.87926C193.049 10.2372 192.535 10.7012 192.117 11.2713C191.7 11.8414 191.434 12.4413 191.322 13.071L190.914 15.3977C190.768 16.3523 190.801 17.1312 191.013 17.7344C191.226 18.3376 191.597 18.7817 192.127 19.0668C192.657 19.3518 193.327 19.4943 194.136 19.4943C194.666 19.4943 195.156 19.4214 195.607 19.2756C196.058 19.1297 196.459 18.911 196.81 18.6193C197.168 18.321 197.467 17.9564 197.705 17.5256L200.996 17.9034C200.632 18.7917 200.098 19.5672 199.396 20.2301C198.693 20.8864 197.851 21.3968 196.87 21.7614C195.896 22.1193 194.812 22.2983 193.619 22.2983ZM209.17 22.2685C207.97 22.2685 206.946 21.9602 206.097 21.3438C205.249 20.7273 204.646 19.8324 204.288 18.6591C203.936 17.4858 203.897 16.0606 204.168 14.3835C204.453 12.6866 204.974 11.2547 205.729 10.0881C206.485 8.91477 207.387 8.02983 208.434 7.43324C209.488 6.83002 210.602 6.52841 211.775 6.52841C212.676 6.52841 213.389 6.68087 213.913 6.98579C214.443 7.28409 214.841 7.64536 215.106 8.0696C215.371 8.48722 215.567 8.88163 215.692 9.25284H215.842L217.104 1.63636H220.714L217.333 22H213.793L214.201 19.5938H213.982C213.73 19.965 213.396 20.3594 212.978 20.777C212.56 21.188 212.04 21.5393 211.417 21.831C210.794 22.1226 210.045 22.2685 209.17 22.2685ZM210.602 19.3153C211.371 19.3153 212.06 19.1098 212.67 18.6989C213.286 18.2812 213.8 17.7012 214.211 16.9588C214.622 16.2164 214.91 15.3513 215.076 14.3636C215.242 13.3759 215.242 12.5175 215.076 11.7884C214.91 11.0592 214.589 10.4924 214.112 10.0881C213.634 9.68371 213.008 9.48153 212.232 9.48153C211.437 9.48153 210.737 9.69034 210.134 10.108C209.538 10.5256 209.047 11.1023 208.663 11.8381C208.278 12.5739 208.006 13.4157 207.847 14.3636C207.688 15.3182 207.678 16.17 207.817 16.919C207.963 17.6615 208.265 18.2481 208.722 18.679C209.186 19.1032 209.813 19.3153 210.602 19.3153ZM221.186 22L223.732 6.72727H227.331L224.786 22H221.186ZM226.058 4.53977C225.482 4.53977 225.004 4.34754 224.626 3.96307C224.249 3.5786 224.083 3.1179 224.129 2.58097C224.176 2.04403 224.418 1.58333 224.855 1.19886C225.299 0.814394 225.806 0.622159 226.376 0.622159C226.953 0.622159 227.427 0.814394 227.798 1.19886C228.176 1.58333 228.342 2.04403 228.295 2.58097C228.256 3.1179 228.014 3.5786 227.57 3.96307C227.132 4.34754 226.628 4.53977 226.058 4.53977ZM235.109 22.2983C233.584 22.2983 232.332 21.9635 231.35 21.294C230.369 20.6245 229.683 19.6998 229.292 18.5199C228.908 17.3333 228.845 15.9678 229.103 14.4233C229.355 12.8722 229.876 11.5033 230.664 10.3168C231.46 9.12358 232.461 8.19555 233.667 7.53267C234.874 6.86316 236.223 6.52841 237.714 6.52841C238.954 6.52841 240.011 6.7571 240.886 7.21449C241.768 7.66525 242.424 8.30492 242.855 9.13352C243.292 9.95549 243.461 10.9167 243.362 12.017H239.912C239.898 11.2812 239.67 10.6681 239.225 10.1776C238.781 9.6804 238.132 9.43182 237.277 9.43182C236.534 9.43182 235.851 9.63068 235.228 10.0284C234.605 10.4195 234.078 10.983 233.647 11.7188C233.217 12.4545 232.918 13.3362 232.752 14.3636C232.58 15.4044 232.583 16.2992 232.762 17.0483C232.948 17.7907 233.283 18.3641 233.767 18.7685C234.257 19.1662 234.877 19.3651 235.626 19.3651C236.156 19.3651 236.65 19.2656 237.108 19.0668C237.565 18.8613 237.966 18.5663 238.311 18.1818C238.662 17.7973 238.937 17.33 239.136 16.7798H242.576C242.305 17.8603 241.821 18.8182 241.125 19.6534C240.435 20.482 239.58 21.1316 238.559 21.6023C237.538 22.0663 236.388 22.2983 235.109 22.2983ZM244.647 22L247.192 6.72727H250.792L248.246 22H244.647ZM249.519 4.53977C248.942 4.53977 248.465 4.34754 248.087 3.96307C247.71 3.5786 247.544 3.1179 247.59 2.58097C247.637 2.04403 247.879 1.58333 248.316 1.19886C248.76 0.814394 249.267 0.622159 249.837 0.622159C250.414 0.622159 250.888 0.814394 251.259 1.19886C251.637 1.58333 251.803 2.04403 251.756 2.58097C251.717 3.1179 251.475 3.5786 251.031 3.96307C250.593 4.34754 250.089 4.53977 249.519 4.53977ZM257.039 13.0511L255.567 22H251.958L254.503 6.72727H257.953L257.516 9.32244H257.705C258.182 8.46733 258.852 7.78788 259.713 7.28409C260.575 6.7803 261.579 6.52841 262.726 6.52841C263.767 6.52841 264.642 6.75379 265.351 7.20454C266.06 7.64867 266.564 8.30161 266.863 9.16335C267.161 10.0185 267.207 11.0559 267.002 12.2756L265.371 22H261.772L263.293 12.8324C263.465 11.8182 263.336 11.0227 262.905 10.446C262.481 9.86269 261.798 9.57102 260.857 9.57102C260.227 9.57102 259.647 9.71023 259.117 9.98864C258.587 10.2604 258.139 10.6548 257.775 11.1719C257.417 11.6889 257.171 12.3153 257.039 13.0511ZM275.732 22.2983C274.201 22.2983 272.935 21.9801 271.934 21.3438C270.933 20.7008 270.23 19.7926 269.826 18.6193C269.428 17.4394 269.362 16.0507 269.627 14.4531C269.885 12.8821 270.412 11.5033 271.208 10.3168C272.003 9.12358 272.998 8.19555 274.191 7.53267C275.391 6.86316 276.716 6.52841 278.168 6.52841C279.109 6.52841 279.974 6.68087 280.763 6.98579C281.552 7.28409 282.218 7.74811 282.762 8.37784C283.305 9.00758 283.68 9.80966 283.885 10.7841C284.091 11.7519 284.081 12.9053 283.855 14.2443L283.686 15.348H271.158L271.546 12.9219H280.614C280.733 12.2325 280.694 11.6193 280.495 11.0824C280.296 10.5388 279.964 10.1113 279.5 9.79972C279.036 9.48816 278.456 9.33239 277.76 9.33239C277.051 9.33239 276.388 9.51468 275.772 9.87926C275.162 10.2372 274.648 10.7012 274.23 11.2713C273.813 11.8414 273.548 12.4413 273.435 13.071L273.027 15.3977C272.882 16.3523 272.915 17.1312 273.127 17.7344C273.339 18.3376 273.71 18.7817 274.24 19.0668C274.771 19.3518 275.44 19.4943 276.249 19.4943C276.779 19.4943 277.27 19.4214 277.721 19.2756C278.171 19.1297 278.572 18.911 278.924 18.6193C279.282 18.321 279.58 17.9564 279.819 17.5256L283.11 17.9034C282.745 18.7917 282.212 19.5672 281.509 20.2301C280.806 20.8864 279.964 21.3968 278.983 21.7614C278.009 22.1193 276.925 22.2983 275.732 22.2983ZM288.061 22.2188C287.452 22.2188 286.948 22.0066 286.55 21.5824C286.152 21.1581 285.967 20.6411 285.993 20.0312C286.02 19.4347 286.262 18.9276 286.719 18.5099C287.176 18.0923 287.703 17.8835 288.3 17.8835C288.89 17.8835 289.391 18.0956 289.801 18.5199C290.219 18.9441 290.408 19.4479 290.368 20.0312C290.342 20.4422 290.216 20.8134 289.99 21.1449C289.772 21.4763 289.493 21.7382 289.155 21.9304C288.817 22.1226 288.453 22.2188 288.061 22.2188ZM289.871 11.321C289.261 11.321 288.757 11.1089 288.36 10.6847C287.962 10.2538 287.773 9.73674 287.793 9.13352C287.819 8.5303 288.061 8.0232 288.519 7.61222C288.976 7.1946 289.507 6.98579 290.11 6.98579C290.7 6.98579 291.2 7.19792 291.611 7.62216C292.022 8.03977 292.208 8.54356 292.168 9.13352C292.141 9.53788 292.019 9.90578 291.8 10.2372C291.581 10.5687 291.3 10.8338 290.955 11.0327C290.617 11.2249 290.256 11.321 289.871 11.321Z" fill="url(#paint0_linear_2_51)"/>
<path d="M301.477 3.82386V1.63636H316.75V3.82386H310.347V22H307.881V3.82386H301.477ZM322.584 12.8125V22H320.238V1.63636H322.584V9.11364H322.783C323.141 8.32481 323.678 7.69839 324.394 7.23438C325.116 6.76373 326.078 6.52841 327.277 6.52841C328.318 6.52841 329.23 6.73722 330.012 7.15483C330.794 7.56581 331.4 8.19886 331.831 9.05398C332.269 9.90246 332.488 10.983 332.488 12.2955V22H330.141V12.4545C330.141 11.2415 329.826 10.3035 329.196 9.64062C328.573 8.97112 327.708 8.63636 326.601 8.63636C325.832 8.63636 325.143 8.79877 324.533 9.12358C323.93 9.44839 323.453 9.92235 323.101 10.5455C322.757 11.1686 322.584 11.9242 322.584 12.8125ZM343.184 22.3182C341.712 22.3182 340.443 21.9934 339.376 21.3438C338.315 20.6875 337.496 19.7727 336.92 18.5994C336.35 17.4195 336.065 16.0473 336.065 14.483C336.065 12.9186 336.35 11.5398 336.92 10.3466C337.496 9.14678 338.299 8.21212 339.326 7.54261C340.36 6.86648 341.567 6.52841 342.945 6.52841C343.741 6.52841 344.526 6.66098 345.302 6.92614C346.077 7.19129 346.783 7.62216 347.42 8.21875C348.056 8.80871 348.563 9.59091 348.941 10.5653C349.319 11.5398 349.508 12.7396 349.508 14.1648V15.1591H337.735V13.1307H347.121C347.121 12.2689 346.949 11.5 346.604 10.8239C346.266 10.1477 345.782 9.61411 345.153 9.22301C344.53 8.83191 343.794 8.63636 342.945 8.63636C342.011 8.63636 341.202 8.86837 340.519 9.33239C339.843 9.78977 339.323 10.3864 338.958 11.1222C338.594 11.858 338.411 12.6468 338.411 13.4886V14.8409C338.411 15.9943 338.61 16.9721 339.008 17.7741C339.412 18.5696 339.972 19.1761 340.688 19.5938C341.404 20.0047 342.236 20.2102 343.184 20.2102C343.8 20.2102 344.357 20.1241 344.854 19.9517C345.358 19.7727 345.792 19.5076 346.157 19.1562C346.522 18.7983 346.803 18.3542 347.002 17.8239L349.269 18.4602C349.031 19.2292 348.629 19.9053 348.066 20.4886C347.503 21.0653 346.807 21.5161 345.978 21.8409C345.149 22.1591 344.218 22.3182 343.184 22.3182ZM371.771 10.1477L369.663 10.7443C369.53 10.393 369.335 10.0516 369.076 9.72017C368.824 9.3821 368.479 9.10369 368.042 8.88494C367.604 8.66619 367.044 8.55682 366.362 8.55682C365.427 8.55682 364.648 8.77225 364.025 9.20312C363.408 9.62737 363.1 10.1676 363.1 10.8239C363.1 11.4072 363.312 11.8679 363.737 12.206C364.161 12.544 364.824 12.8258 365.725 13.0511L367.992 13.608C369.358 13.9394 370.375 14.4465 371.045 15.1293C371.714 15.8054 372.049 16.6771 372.049 17.7443C372.049 18.6193 371.797 19.4015 371.293 20.0909C370.796 20.7803 370.1 21.3239 369.205 21.7216C368.31 22.1193 367.27 22.3182 366.083 22.3182C364.525 22.3182 363.236 21.9801 362.215 21.304C361.194 20.6278 360.548 19.6402 360.276 18.3409L362.504 17.7841C362.716 18.6061 363.117 19.2225 363.707 19.6335C364.303 20.0445 365.082 20.25 366.043 20.25C367.137 20.25 368.005 20.018 368.648 19.554C369.298 19.0833 369.623 18.5199 369.623 17.8636C369.623 17.3333 369.437 16.8892 369.066 16.5312C368.695 16.1667 368.125 15.8949 367.356 15.7159L364.81 15.1193C363.412 14.7879 362.384 14.2741 361.728 13.5781C361.078 12.8755 360.754 11.9972 360.754 10.9432C360.754 10.0814 360.996 9.31913 361.479 8.65625C361.97 7.99337 362.636 7.47301 363.478 7.09517C364.326 6.71733 365.288 6.52841 366.362 6.52841C367.873 6.52841 369.059 6.85985 369.921 7.52273C370.79 8.18561 371.406 9.06061 371.771 10.1477ZM375.581 22V6.72727H377.928V22H375.581ZM376.775 4.18182C376.317 4.18182 375.923 4.02604 375.591 3.71449C375.266 3.40294 375.104 3.02841 375.104 2.59091C375.104 2.15341 375.266 1.77888 375.591 1.46733C375.923 1.15578 376.317 1 376.775 1C377.232 1 377.623 1.15578 377.948 1.46733C378.279 1.77888 378.445 2.15341 378.445 2.59091C378.445 3.02841 378.279 3.40294 377.948 3.71449C377.623 4.02604 377.232 4.18182 376.775 4.18182ZM383.976 6.72727L387.635 12.9716L391.294 6.72727H393.999L389.067 14.3636L393.999 22H391.294L387.635 16.0739L383.976 22H381.271L386.124 14.3636L381.271 6.72727H383.976ZM405.222 27.7273V6.72727H407.489V9.15341H407.767C407.94 8.88826 408.178 8.55019 408.483 8.1392C408.795 7.72159 409.239 7.35038 409.816 7.02557C410.399 6.69413 411.188 6.52841 412.182 6.52841C413.468 6.52841 414.602 6.84991 415.583 7.4929C416.564 8.13589 417.329 9.04735 417.88 10.2273C418.43 11.4072 418.705 12.7992 418.705 14.4034C418.705 16.0208 418.43 17.4228 417.88 18.6094C417.329 19.7893 416.567 20.7041 415.593 21.3537C414.618 21.9967 413.495 22.3182 412.222 22.3182C411.241 22.3182 410.455 22.1558 409.865 21.831C409.275 21.4995 408.821 21.125 408.503 20.7074C408.185 20.2831 407.94 19.9318 407.767 19.6534H407.569V27.7273H405.222ZM407.529 14.3636C407.529 15.517 407.698 16.5346 408.036 17.4162C408.374 18.2912 408.868 18.9773 409.517 19.4744C410.167 19.965 410.962 20.2102 411.904 20.2102C412.885 20.2102 413.703 19.9517 414.36 19.4347C415.023 18.911 415.52 18.2083 415.851 17.3267C416.189 16.4384 416.358 15.4508 416.358 14.3636C416.358 13.2898 416.193 12.322 415.861 11.4602C415.536 10.5919 415.042 9.90578 414.38 9.40199C413.723 8.89157 412.898 8.63636 411.904 8.63636C410.949 8.63636 410.147 8.87831 409.498 9.36222C408.848 9.83949 408.357 10.509 408.026 11.3707C407.694 12.2259 407.529 13.2235 407.529 14.3636ZM422.284 22V6.72727H424.631V22H422.284ZM423.478 4.18182C423.02 4.18182 422.626 4.02604 422.294 3.71449C421.97 3.40294 421.807 3.02841 421.807 2.59091C421.807 2.15341 421.97 1.77888 422.294 1.46733C422.626 1.15578 423.02 1 423.478 1C423.935 1 424.326 1.15578 424.651 1.46733C424.982 1.77888 425.148 2.15341 425.148 2.59091C425.148 3.02841 424.982 3.40294 424.651 3.71449C424.326 4.02604 423.935 4.18182 423.478 4.18182ZM431.276 1.63636V22H428.929V1.63636H431.276ZM437.92 1.63636V22H435.574V1.63636H437.92ZM446.712 22.358C445.745 22.358 444.866 22.1757 444.077 21.8111C443.289 21.4399 442.662 20.9062 442.198 20.2102C441.734 19.5076 441.502 18.6591 441.502 17.6648C441.502 16.7898 441.674 16.0805 442.019 15.5369C442.364 14.9867 442.825 14.5559 443.401 14.2443C443.978 13.9328 444.614 13.7008 445.31 13.5483C446.013 13.3892 446.719 13.2633 447.428 13.1705C448.356 13.0511 449.109 12.9616 449.685 12.902C450.269 12.8357 450.693 12.7263 450.958 12.5739C451.23 12.4214 451.366 12.1562 451.366 11.7784V11.6989C451.366 10.7178 451.097 9.95549 450.56 9.41193C450.03 8.86837 449.225 8.59659 448.144 8.59659C447.024 8.59659 446.146 8.84186 445.509 9.33239C444.873 9.82292 444.425 10.3466 444.167 10.9034L441.94 10.108C442.337 9.17992 442.868 8.45739 443.531 7.94034C444.2 7.41667 444.929 7.05208 445.718 6.84659C446.513 6.63447 447.296 6.52841 448.065 6.52841C448.555 6.52841 449.119 6.58807 449.755 6.70739C450.398 6.82007 451.018 7.0554 451.614 7.41335C452.218 7.77131 452.718 8.31155 453.116 9.03409C453.513 9.75663 453.712 10.7244 453.712 11.9375V22H451.366V19.9318H451.246C451.087 20.2633 450.822 20.6179 450.451 20.9957C450.08 21.3736 449.586 21.6951 448.969 21.9602C448.353 22.2254 447.601 22.358 446.712 22.358ZM447.07 20.25C447.998 20.25 448.781 20.0677 449.417 19.7031C450.06 19.3385 450.544 18.8679 450.869 18.2912C451.2 17.7145 451.366 17.108 451.366 16.4716V14.3239C451.266 14.4432 451.048 14.5526 450.71 14.652C450.378 14.7448 449.994 14.8277 449.556 14.9006C449.125 14.9669 448.704 15.0265 448.293 15.0795C447.889 15.1259 447.561 15.1657 447.309 15.1989C446.699 15.2784 446.129 15.4077 445.599 15.5866C445.075 15.759 444.651 16.0208 444.326 16.3722C444.008 16.7169 443.849 17.1875 443.849 17.7841C443.849 18.5994 444.15 19.2159 444.754 19.6335C445.363 20.0445 446.136 20.25 447.07 20.25ZM457.995 22V6.72727H460.262V9.03409H460.422C460.7 8.27841 461.204 7.66525 461.933 7.1946C462.662 6.72396 463.484 6.48864 464.399 6.48864C464.571 6.48864 464.787 6.49195 465.045 6.49858C465.304 6.50521 465.499 6.51515 465.632 6.52841V8.91477C465.552 8.89489 465.37 8.86506 465.085 8.82528C464.806 8.77888 464.511 8.75568 464.2 8.75568C463.458 8.75568 462.795 8.91146 462.211 9.22301C461.635 9.52794 461.177 9.95218 460.839 10.4957C460.508 11.0327 460.342 11.6458 460.342 12.3352V22H457.995ZM479.232 10.1477L477.124 10.7443C476.991 10.393 476.795 10.0516 476.537 9.72017C476.285 9.3821 475.94 9.10369 475.503 8.88494C475.065 8.66619 474.505 8.55682 473.822 8.55682C472.888 8.55682 472.109 8.77225 471.486 9.20312C470.869 9.62737 470.561 10.1676 470.561 10.8239C470.561 11.4072 470.773 11.8679 471.197 12.206C471.622 12.544 472.285 12.8258 473.186 13.0511L475.453 13.608C476.819 13.9394 477.836 14.4465 478.506 15.1293C479.175 15.8054 479.51 16.6771 479.51 17.7443C479.51 18.6193 479.258 19.4015 478.754 20.0909C478.257 20.7803 477.561 21.3239 476.666 21.7216C475.771 22.1193 474.731 22.3182 473.544 22.3182C471.986 22.3182 470.697 21.9801 469.676 21.304C468.655 20.6278 468.009 19.6402 467.737 18.3409L469.964 17.7841C470.177 18.6061 470.578 19.2225 471.168 19.6335C471.764 20.0445 472.543 20.25 473.504 20.25C474.598 20.25 475.466 20.018 476.109 19.554C476.759 19.0833 477.084 18.5199 477.084 17.8636C477.084 17.3333 476.898 16.8892 476.527 16.5312C476.156 16.1667 475.586 15.8949 474.817 15.7159L472.271 15.1193C470.873 14.7879 469.845 14.2741 469.189 13.5781C468.539 12.8755 468.214 11.9972 468.214 10.9432C468.214 10.0814 468.456 9.31913 468.94 8.65625C469.431 7.99337 470.097 7.47301 470.939 7.09517C471.787 6.71733 472.749 6.52841 473.822 6.52841C475.334 6.52841 476.52 6.85985 477.382 7.52273C478.25 8.18561 478.867 9.06061 479.232 10.1477Z" fill="#707070"/>
<defs>
<linearGradient id="paint0_linear_2_51" x1="126.775" y1="68.3875" x2="107.75" y2="-19.202" gradientUnits="userSpaceOnUse">
<stop stop-color="#F1CA72"/>
<stop offset="1" stop-color="#D96E6C"/>
</linearGradient>
</defs>
</svg>
